<?xml version="1.0" encoding="utf-8"?>
<!-- Generator: Adobe Illustrator 22.0.1, SVG Export Plug-In . SVG Version: 6.00 Build 0)  -->
<svg version="1.2" baseProfile="tiny" id="レイヤー_1"
	 xmlns="http://www.w3.org/2000/svg" xmlns:xlink="http://www.w3.org/1999/xlink" x="0px" y="0px" width="220.3px" height="208.5px"
	 viewBox="0 0 220.3 208.5" xml:space="preserve">
<g id="体_後_xFF08_お座り_xFF09_">
	<g>
		<path fill="none" stroke="#20BF00" stroke-width="3" stroke-linecap="round" stroke-linejoin="round" d="M114.1,35.9
			c0,5.3-4.3,9.7-9.7,9.7c-5.3,0-9.7-4.3-9.7-9.7c0-5.3,4.3-9.7,9.7-9.7C109.7,26.3,114.1,30.6,114.1,35.9z"/>
		
			<line fill="none" stroke="#20BF00" stroke-width="2.7066" stroke-linecap="round" stroke-linejoin="round" x1="87.5" y1="35.9" x2="121.3" y2="35.9"/>
		
			<line fill="none" stroke="#20BF00" stroke-width="2.7212" stroke-linecap="round" stroke-linejoin="round" x1="104.4" y1="20.2" x2="104.4" y2="51.7"/>
	</g>
	<path fill="#DF731B" d="M164.1,31.3c0,17.3-26.1,31.3-58.2,31.3c-32.1,0-58.2-14-58.2-31.3S73.8,0,105.9,0
		C138.1,0,164.1,14,164.1,31.3z"/>
	<g>
		<path fill="#DF731B" d="M44.9,95.5c-1.6-22.9-19.6-26.7-35.5,5.8c-15.9,32.5-2.9,62.6,6.7,73.8c9.6,11.3,6.3,11.3,6.3,11.3
			s-9.6,2.9-7.9,6.3c1.7,3.3,2.9,12.9,16.7,13.4c13.8,0.4,34.2,0.4,36.3-5.4c2.1-5.8-4.6-19.2-4.6-24.2
			C62.9,171.5,45.3,101.4,44.9,95.5z"/>
		<path fill="#332F20" d="M14.5,192.7c1.7,3.3,2.9,12.9,16.7,13.4c11,0.3,26.2,0.4,33-2.6c-29.6,0.1-39.8-4.4-42.4-16.8
			C19.7,187.4,13,189.9,14.5,192.7z"/>
		<path fill="none" stroke="#000000" stroke-width="4" stroke-linecap="round" stroke-linejoin="round" d="M44.9,95.5
			c-1.6-22.9-19.6-26.7-35.5,5.8c-15.9,32.5-2.9,62.6,6.7,73.8c9.6,11.3,6.3,11.3,6.3,11.3s-9.6,2.9-7.9,6.3
			c1.7,3.3,2.9,12.9,16.7,13.4c13.8,0.4,34.2,0.4,36.3-5.4c2.1-5.8-4.6-19.2-4.6-24.2C62.9,171.5,45.3,101.4,44.9,95.5z"/>
	</g>
	<path fill="#DF731B" stroke="#000000" stroke-width="4" stroke-linecap="round" d="M165,33c10.4,15,20.9,32.5,22.1,63.4
		c1.3,30.9,3.3,50.1,0.8,59.2c-2.5,9.2-43-0.4-44.6-4.2c-1.7-3.8-15.4-98-15.4-98"/>
	<path fill="#DF731B" stroke="#000000" stroke-width="4" stroke-linecap="round" stroke-linejoin="round" d="M62.4,13.4
		c-11.9,50.1-29.9,56.8-37.3,83c-7.4,26.2-6,95.5,40.9,100.5c46.9,5,73,9.2,93-15.4c20-24.6,17.6-44.2,15.6-72.6
		c-2-28.4-6.4-33.8-11.2-55.1"/>
	<g>
		<path fill="#DF731B" d="M142.2,106c9.2-30.5,40.1-44.2,60.1-6.7s3.3,63.8-2.1,69.7c-5.4,5.8-5.8,7.5-3.8,7.9
			c2.1,0.4,20.9,6.7,21.7,10c1,4.1-5.8,15-12.5,17.9c-6.7,2.9-55.9,1.7-63.4-2.1c-7.5-3.8-0.8-19.6,1.3-22.9"/>
		<path fill="#332F20" d="M205.6,204.8c6.7-2.9,13.5-13.8,12.5-17.9c-0.8-3.3-18.9-9.3-21.5-10c-10.8,8.7-13.4,16.1-31.3,24.1
			c-4,1.8-7.8,3.1-11.2,4C171.4,206.9,200.6,207.1,205.6,204.8z"/>
		<path fill="none" stroke="#000000" stroke-width="4" stroke-linecap="round" stroke-linejoin="round" d="M142.2,106
			c9.2-30.5,40.1-44.2,60.1-6.7s3.3,63.8-2.1,69.7c-5.4,5.8-5.8,7.5-3.8,7.9c2.1,0.4,20.9,6.7,21.7,10c1,4.1-5.8,15-12.5,17.9
			c-6.7,2.9-55.9,1.7-63.4-2.1c-7.5-3.8-0.8-19.6,1.3-22.9"/>
	</g>
</g>
</svg>
