<?xml version="1.0" encoding="utf-8"?>
<!-- Generator: Adobe Illustrator 22.0.1, SVG Export Plug-In . SVG Version: 6.00 Build 0)  -->
<svg version="1.2" baseProfile="tiny" id="レイヤー_1"
	 xmlns="http://www.w3.org/2000/svg" xmlns:xlink="http://www.w3.org/1999/xlink" x="0px" y="0px" width="405.2px" height="175.8px"
	 viewBox="0 0 405.2 175.8" xml:space="preserve">
<g id="体_正面_xFF08_寝_xFF09_">
	<g>
		<path fill="#DF731B" d="M94.7,4.3C64.8,15.2,51.9,39.9,51,66.4C49.8,98,63.3,108,65.9,111.2c7.2,8.6,32.5,16.3,47.2,18.8
			c22.2,3.8,48.9,20.9,109.8,20.9c52,0,71.1-3.8,67.9-65.4C287.7,25.2,119.4,2,119.4,2L94.7,4.3z"/>
		<path fill="#FFFFCC" d="M239.6,129.5c-2.9-12.4-10.8-18.7-25.2-19.3c-8.8-0.4-24.9,3.3-28.5,15.1c-4.1,13.5-8.1,14-13,14.2
			C145.1,141,90.5,94.6,60.3,88.9c-2.6-0.5-5.2-1.3-7.8-2.2c3.5,16,11.4,22.2,13.4,24.6c7.2,8.6,32.5,16.3,47.2,18.8
			c22.2,3.8,48.9,20.9,109.8,20.9c15.3,0,27.7-0.3,37.6-2.4C254.1,144.5,242.6,142.2,239.6,129.5z"/>
		<path fill="none" stroke="#000000" stroke-width="4" stroke-linecap="round" stroke-linejoin="round" d="M94.7,4.3
			C64.8,15.2,51.9,39.9,51,66.4C49.8,98,63.3,108,65.9,111.2c7.2,8.6,32.5,16.3,47.2,18.8c22.2,3.8,48.9,20.9,109.8,20.9
			c52,0,71.1-3.8,67.9-65.4C287.7,25.2,119.4,2,119.4,2L94.7,4.3z"/>
	</g>
	<g>
		<path fill="#DF731B" d="M52.8,79.2c-19.7,25.4-34.9,48.2-29.2,59.7c5.7,11.4,26,14,34.3,6.3c8.3-7.6,8.3-10.8,12.1-18.4
			c3.8-7.6,17.1-10.2,17.1-10.2S75,106.5,74.4,87.5c-0.4-12.3,4.4-22.8,2.5-29.2"/>
		<path fill="#332F20" d="M23.6,138.9c5.7,11.4,26,14,34.3,6.3c8.3-7.6,8.3-10.8,12.1-18.4c0.9-1.7,2.2-3.2,3.8-4.4
			c-0.1-0.2-0.1-0.4-0.2-0.5c-6-16.1-17.9-24.5-32.9-26.4C27.4,114.1,19.1,130,23.6,138.9z"/>
		<path fill="none" stroke="#000000" stroke-width="4" stroke-linecap="round" stroke-linejoin="round" d="M52.8,79.2
			c-19.7,25.4-34.9,48.2-29.2,59.7c5.7,11.4,26,14,34.3,6.3c8.3-7.6,8.3-10.8,12.1-18.4c3.8-7.6,17.1-10.2,17.1-10.2
			S75,106.5,74.4,87.5c-0.4-12.3,4.4-22.8,2.5-29.2"/>
	</g>
	<g>
		<path fill="#DF731B" d="M163.2,138.9C118.8,154.8,23,175,20.4,173.8c-2.6-1.2-19.2-18-18.4-22.9c0.8-4.8,7.9-9,39.3-22.3
			c43.5-18.4,78.8-28.2,101.1-30.8c16.6-2,26.5-0.2,36.1,0.4"/>
		<path fill="#332F20" d="M41.3,128.7C9.9,141.9,2.8,146.1,2,150.9c-0.8,4.8,15.8,21.6,18.4,22.9c1.3,0.6,24.5-3.9,53.2-10.5
			c-5.1-12.4-15.6-24.8-27.5-36.7C44.5,127.3,42.9,128,41.3,128.7z"/>
		<path fill="none" stroke="#000000" stroke-width="4" stroke-linecap="round" stroke-linejoin="round" d="M163.2,138.9
			C118.8,154.8,23,175,20.4,173.8c-2.6-1.2-19.2-18-18.4-22.9c0.8-4.8,7.9-9,39.3-22.3c43.5-18.4,78.8-28.2,101.1-30.8
			c16.6-2,26.5-0.2,36.1,0.4"/>
	</g>
	<g>
		<path fill="#DF731B" d="M255.9,146.5c28.6,14,120,24.1,126.3,22.8c2.8-0.6,22.2-21.3,20.9-26s-8.2-6.3-40.7-16.3
			c-45.1-13.9-81.3-20-103.7-20.4c-16.7-0.3-10.4-2.1-18.7-0.8"/>
		<path fill="#332F20" d="M382.2,169.4c2.8-0.6,22.2-21.3,20.9-26s-8.2-6.3-40.7-16.3c-0.5-0.2-1-0.3-1.5-0.4
			c-4.5,12.8-14.1,27.3-23.4,38.5C360.5,168.3,379.4,169.9,382.2,169.4z"/>
		<path fill="none" stroke="#000000" stroke-width="4" stroke-linecap="round" stroke-linejoin="round" d="M255.9,146.5
			c28.6,14,120,24.1,126.3,22.8c2.8-0.6,22.2-21.3,20.9-26s-8.2-6.3-40.7-16.3c-45.1-13.9-81.3-20-103.7-20.4
			c-16.7-0.3-10.4-2.1-18.7-0.8"/>
	</g>
	<g>
		<path fill="none" stroke="#20BF00" stroke-width="3" stroke-linecap="round" stroke-linejoin="round" d="M222.7,130.7
			c0,5.3-4.3,9.7-9.7,9.7c-5.3,0-9.7-4.3-9.7-9.7s4.3-9.7,9.7-9.7S222.7,125.4,222.7,130.7z"/>
		
			<line fill="none" stroke="#20BF00" stroke-width="2.7066" stroke-linecap="round" stroke-linejoin="round" x1="196.1" y1="130.7" x2="229.9" y2="130.7"/>
		
			<line fill="none" stroke="#20BF00" stroke-width="2.7212" stroke-linecap="round" stroke-linejoin="round" x1="213" y1="115" x2="213" y2="146.4"/>
	</g>
</g>
</svg>
