<?xml version="1.0" encoding="utf-8"?>
<!-- Generator: Adobe Illustrator 22.0.1, SVG Export Plug-In . SVG Version: 6.00 Build 0)  -->
<svg version="1.2" baseProfile="tiny" id="レイヤー_1"
	 xmlns="http://www.w3.org/2000/svg" xmlns:xlink="http://www.w3.org/1999/xlink" x="0px" y="0px" width="288.2px" height="226.8px"
	 viewBox="0 0 288.2 226.8" xml:space="preserve">
<g id="体_横_3">
	<g>
		<path fill="#DF731B" d="M115.7,62.3c-11.8,15.1-7.9,66.8,13.1,84.4c17,14.2,27.2,10.4,29.1,16.1c0.5,1.4-18.3,40.8-16.1,47.3
			c1.4,4.3,22.7,5.8,28.9,1.8c10.1-6.5,53.6-86,51.2-93.5c-2.4-7.5-10.7-11.1-13.6-12.1c-2.8-0.9,3.8-4.7,6.6-23.7
			c2.7-18.3,4.7-34.1-8.5-58.7"/>
		<path fill="#332F20" d="M141.9,210.1c1.4,4.3,22.7,5.8,28.9,1.8c5.2-3.4,19.4-26.2,31.5-48.5c-11.1-2.4-27.3-0.2-44.8,1.3
			C154.4,173.1,139.9,204.3,141.9,210.1z"/>
		<path fill="none" stroke="#000000" stroke-width="4" stroke-linecap="round" stroke-linejoin="round" d="M115.7,62.3
			c-11.8,15.1-7.9,66.8,13.1,84.4c17,14.2,27.2,10.4,29.1,16.1c0.5,1.4-18.3,40.8-16.1,47.3c1.4,4.3,22.7,5.8,28.9,1.8
			c10.1-6.5,53.6-86,51.2-93.5c-2.4-7.5-10.7-11.1-13.6-12.1c-2.8-0.9,3.8-4.7,6.6-23.7c2.7-18.3,4.7-34.1-8.5-58.7"/>
	</g>
	<g>
		<path fill="#DF731B" d="M6.5,56.7C6.1,101.2,18.3,132,21.1,160c2.7,27.2,2.7,48.8,4.8,52.7c2.2,3.9,26.4,2.7,31.4-0.7
			c3.7-2.5,3.5-36.8,3.2-51.5c-0.3-14.9-1.7-44.4-2.8-63.7c-1.1-19.4-2-36.9-2-36.9L6.5,56.7z"/>
		<path fill="#332F20" d="M57.4,211.9c2.8-1.9,3.4-21.5,3.4-37.4c-12.8,0.4-23.2,0-38.7-3.9c1.8,22.1,2,38.7,3.9,42
			C28.1,216.5,52.4,215.3,57.4,211.9z"/>
		<path fill="none" stroke="#000000" stroke-width="4" stroke-linecap="round" stroke-linejoin="round" d="M6.5,56.7
			C6.1,101.2,18.3,132,21.1,160c2.7,27.2,2.7,48.8,4.8,52.7c2.2,3.9,26.4,2.7,31.4-0.7c3.7-2.5,3.5-36.8,3.2-51.5
			c-0.3-14.9-1.7-44.4-2.8-63.7c-1.1-19.4-2-36.9-2-36.9L6.5,56.7z"/>
	</g>
	<g>
		<path fill="#DF731B" d="M9,48C0.3,61.3,1.2,69.3,3.8,76.1c0.5,1.4,4.5,12.4,23.9,26.1c19.4,13.7,41.3,28.8,72.6,39.1
			c26.1,8.6,69.1,13.8,95.5,10.4c34.6-4.4,47.3-11,62.2-24.5c11.2-10.2,13.7-20.9,14.8-35.9c1.6-22,0.7-40.7-9.6-53.2
			c-15.6-19-34.8-28.2-60.4-26.3c-20.6,1.6-34.2,6.7-45.8,7.6c-20.4,1.5-34.3-1.1-63.3-13.9C61.5-8.8,24.7,24,9,48z"/>
		<path fill="#FFFFCC" d="M27.7,102.1c19.4,13.7,41.3,28.8,72.6,39.1c26.1,8.6,69.1,13.8,95.5,10.4c34.6-4.4,47.3-11,62.2-24.5
			c9.4-8.5,12.7-17.4,14.1-28.8c-17.5,0.1-54,1.4-93.5,9.8c-55,11.6-115.7-0.6-129.4-6.4C41.9,98.6,11.5,76.8,6,79.8
			c-0.1,0.1-0.2,0.1-0.3,0.2C8.3,84.6,14.4,92.7,27.7,102.1z"/>
		<path fill="none" stroke="#000000" stroke-width="4" d="M9,48C0.3,61.3,1.2,69.3,3.8,76.1c0.5,1.4,4.5,12.4,23.9,26.1
			c19.4,13.7,41.3,28.8,72.6,39.1c26.1,8.6,69.1,13.8,95.5,10.4c34.6-4.4,47.3-11,62.2-24.5c11.2-10.2,13.7-20.9,14.8-35.9
			c1.6-22,0.7-40.7-9.6-53.2c-15.6-19-34.8-28.2-60.4-26.3c-20.6,1.6-34.2,6.7-45.8,7.6c-20.4,1.5-34.3-1.1-63.3-13.9
			C61.5-8.8,24.7,24,9,48z"/>
	</g>
	<g>
		<path fill="#DF731B" d="M172.3,92.1c-11.8,15.1-6.8,45.1,14.3,62.7c17,14.2,29,10.8,30.9,16.6c0.5,1.4-19.7,43.5-17.6,50.1
			c1.4,4.3,27,4.5,33.2,0.4c10.1-6.5,55.3-82.8,52.9-90.4c-2.4-7.5-14.7-15.6-17.5-16.6c-2.8-0.9,3.8-4.7,6.6-23.7
			c2.7-18.3,1-36.8-15.6-57.9"/>
		<path fill="#332F20" d="M200,221.4c1.4,4.3,27,4.5,33.2,0.4c5.7-3.6,22.2-28.9,35.3-51.9c-14.2-6-37.4-3.1-51.1,0.9
			c0.1,0.2,0.1,0.3,0.2,0.5C218,172.8,197.8,214.9,200,221.4z"/>
		<path fill="none" stroke="#000000" stroke-width="4" stroke-linecap="round" stroke-linejoin="round" d="M172.3,92.1
			c-11.8,15.1-6.8,45.1,14.3,62.7c17,14.2,29,10.8,30.9,16.6c0.5,1.4-19.7,43.5-17.6,50.1c1.4,4.3,27,4.5,33.2,0.4
			c10.1-6.5,55.3-82.8,52.9-90.4c-2.4-7.5-14.7-15.6-17.5-16.6c-2.8-0.9,3.8-4.7,6.6-23.7c2.7-18.3,1-36.8-15.6-57.9"/>
	</g>
	<g>
		<path fill="#DF731B" d="M53.2,89c4.9,16.6,13.2,40.3,17.1,68.7c4.1,29.6,3.6,56.9,6.3,60.5c2.7,3.5,30.9,1.9,34-0.8
			c3.1-2.7,4.4-47.6,3.9-67.8c-0.4-14.4-0.7-26.1-0.3-36.8"/>
		<path fill="#332F20" d="M110.5,217.4c1.9-1.7,3.1-19.4,3.7-37.5c-14.6,2.2-22.7,1-41.8-2.7c1.9,21.3,2.1,38.2,4.1,41
			C79.2,221.7,107.4,220.1,110.5,217.4z"/>
		<path fill="none" stroke="#000000" stroke-width="4" stroke-linecap="round" stroke-linejoin="round" d="M53.2,89
			c4.9,16.6,13.2,40.3,17.1,68.7c4.1,29.6,3.6,56.9,6.3,60.5c2.7,3.5,30.9,1.9,34-0.8c3.1-2.7,4.4-47.6,3.9-67.8
			c-0.4-14.4-0.7-26.1-0.3-36.8"/>
	</g>
	<g>
		<path fill="none" stroke="#20BF00" stroke-width="3" stroke-linecap="round" stroke-linejoin="round" d="M59.9,52.1
			c0,5.3-4.3,9.7-9.7,9.7c-5.3,0-9.7-4.3-9.7-9.7c0-5.3,4.3-9.7,9.7-9.7C55.6,42.5,59.9,46.8,59.9,52.1z"/>
		
			<line fill="none" stroke="#20BF00" stroke-width="2.7066" stroke-linecap="round" stroke-linejoin="round" x1="33.3" y1="52.1" x2="67.2" y2="52.1"/>
		
			<line fill="none" stroke="#20BF00" stroke-width="2.7212" stroke-linecap="round" stroke-linejoin="round" x1="50.3" y1="36.4" x2="50.3" y2="67.8"/>
	</g>
</g>
</svg>
