<?xml version="1.0" encoding="utf-8"?>
<!-- Generator: Adobe Illustrator 22.0.1, SVG Export Plug-In . SVG Version: 6.00 Build 0)  -->
<svg version="1.2" baseProfile="tiny" id="レイヤー_1"
	 xmlns="http://www.w3.org/2000/svg" xmlns:xlink="http://www.w3.org/1999/xlink" x="0px" y="0px" width="234.1px" height="209.1px"
	 viewBox="0 0 234.1 209.1" xml:space="preserve">
<g id="体_正面_xFF08_お座り_x2F_右手挙げ_xFF09_">
	<g>
		<path fill="#DF731B" d="M48.5,59.9c0,10.1,7.4,28.4,2.4,45.3c-4,13.2,7.5,23.1,7.5,28.3c0,27.4,31.2,48.5,68.5,48.5
			c37.2,0,68.9-19.6,68.9-50.4c0-5.2,11.8-13.3,7.5-26.4c-5.4-16.5,2.4-35.2,2.4-45.3C205.5,28,170.3,2,127,2S48.5,28,48.5,59.9z"/>
		<path fill="#FFFFCC" d="M173.7,60.5c15.9-12.2-1.6-38.6-36.7-40.9c-4.1-0.3-16.1-0.3-20.2,0c-35.1,2.3-52.7,28.6-36.7,40.9
			c14.2,10.9,15,16.9,11.8,21.5c-9.9,13.5-16.1,32.6-16.1,53.8c0,13.4,2.4,25.1,6.7,34.9c12,7.1,27.5,11.4,44.1,11.4
			c16.7,0,32.2-3.9,44.3-11.1c4.4-9.9,6.9-21.8,6.9-35.3c0-21.2-6.2-40.3-16.1-53.8C158.5,76.8,159.5,71.4,173.7,60.5z"/>
		<path fill="none" stroke="#000000" stroke-width="4" stroke-linecap="round" stroke-linejoin="round" d="M49.2,59.9
			c0,10.1,6.6,28.4,1.6,45.3c-4,13.2,7.5,23.1,7.5,28.3c0,27.4,31.2,48.5,68.5,48.5c37.2,0,68.9-19.6,68.9-50.4
			c0-5.2,11.8-13.3,7.5-26.4c-5.4-16.5,1.6-35.2,1.6-45.3C204.7,28,170.3,2,127,2S49.2,28,49.2,59.9z"/>
	</g>
	<g>
		<g>
			<path fill="#DF731B" d="M197.7,73c23.3,12.3,33.5,34.4,34.4,58c1.2,31.6-17.2,41.4-14.9,44.8c2.3,3.4,20.1,15.5,6.9,22.4
				c-13.2,6.9-45.4-2.9-54-9.2c-8.6-6.3-2.7-10.6-2.7-15.2c0,0,17-15.9,22.3-31c2.9-8.3,3.3-19.2,2.3-25.4"/>
			<path fill="#332F20" d="M170,189c8.6,6.3,40.8,16.1,54,9.2c13.2-6.9-4.6-19-6.9-22.4c-0.2-0.2-0.2-0.5-0.2-0.9
				c-15.3-0.5-35.7,2.4-43.6,5.8c-2.7,1.2-5.2,2.5-7.2,4C166.8,186.1,168,187.6,170,189z"/>
			<path fill="none" stroke="#000000" stroke-width="4" stroke-linecap="round" stroke-linejoin="round" d="M197.7,73
				c23.3,12.3,33.5,34.4,34.4,58c1.2,31.6-17.2,41.4-14.9,44.8c2.3,3.4,20.1,15.5,6.9,22.4c-13.2,6.9-45.4-2.9-54-9.2
				c-8.6-6.3-2.7-10.6-2.7-15.2c0,0,17-15.9,22.3-31c2.9-8.3,3.3-19.2,2.3-25.4"/>
		</g>
		<g>
			<path fill="#DF731B" d="M56.3,73C33,85.3,22.7,107.4,21.9,131c-1.2,31.6,17.2,41.4,14.9,44.8c-2.3,3.4-20.1,15.5-6.9,22.4
				c13.2,6.9,45.4-2.9,54-9.2c8.6-6.3,2.7-10.6,2.7-15.2c0,0-17-15.9-22.3-31c-2.9-8.3-3.3-19.2-2.3-25.4"/>
			<path fill="#332F20" d="M84,189c-8.6,6.3-40.8,16.1-54,9.2c-13.2-6.9,4.6-19,6.9-22.4c0.2-0.2,0.2-0.5,0.2-0.9
				c15.3-0.5,35.7,2.4,43.6,5.8c2.7,1.2,5.2,2.5,7.2,4C87.1,186.1,85.9,187.6,84,189z"/>
			<path fill="none" stroke="#000000" stroke-width="4" stroke-linecap="round" stroke-linejoin="round" d="M56.3,73
				C33,85.3,22.7,107.4,21.9,131c-1.2,31.6,17.2,41.4,14.9,44.8c-2.3,3.4-20.1,15.5-6.9,22.4c13.2,6.9,45.4-2.9,54-9.2
				c8.6-6.3,2.7-10.6,2.7-15.2c0,0-17-15.9-22.3-31c-2.9-8.3-3.3-19.2-2.3-25.4"/>
		</g>
	</g>
	<g>
		<g>
			<path fill="#DF731B" d="M159.7,108.1c-2.9,10.9-6.3,93.7-4.6,96c1.7,2.3,23,4,27.6,2.3c4.6-1.7,5.2-6.9,12.1-40.2
				c9.6-46.2,12.3-82.8,10.5-105.2c-1.3-16.7-14.3-37.2-24.7-39"/>
			<path fill="#332F20" d="M182.7,206.4c-4.6,1.7-25.9,0-27.6-2.3c-0.8-1.1-0.5-21.2,0.5-42.8c11-0.4,25.2,0.7,39.5,3.4
				c-0.1,0.5-0.2,1-0.3,1.5C187.9,199.5,187.3,204.7,182.7,206.4z"/>
			<path fill="none" stroke="#000000" stroke-width="4" stroke-linecap="round" stroke-linejoin="round" d="M159.7,108.1
				c-2.9,10.9-6.3,93.7-4.6,96c1.7,2.3,23,4,27.6,2.3c4.6-1.7,5.2-6.9,12.1-40.2c9.6-46.2,12.3-82.8,10.5-105.2
				c-1.3-16.7-14.3-37.2-24.7-39"/>
		</g>
		<path fill="#DF731B" stroke="#000000" stroke-width="4" stroke-linecap="round" stroke-linejoin="round" d="M60.1,99.2
			C4.9,97.6-3.2,82.6,4.4,67c8.9-18.3,17.2-11.9,22.4-11.5c33,2.4,29.8-4.7,51.9-1.2"/>
	</g>
	<g>
		<path fill="none" stroke="#20BF00" stroke-width="3" stroke-linecap="round" stroke-linejoin="round" d="M136.6,34.9
			c0,5.3-4.3,9.7-9.7,9.7c-5.3,0-9.7-4.3-9.7-9.7c0-5.3,4.3-9.7,9.7-9.7C132.3,25.3,136.6,29.6,136.6,34.9z"/>
		
			<line fill="none" stroke="#20BF00" stroke-width="2.7066" stroke-linecap="round" stroke-linejoin="round" x1="110.1" y1="34.9" x2="143.9" y2="34.9"/>
		
			<line fill="none" stroke="#20BF00" stroke-width="2.7212" stroke-linecap="round" stroke-linejoin="round" x1="127" y1="19.2" x2="127" y2="50.7"/>
	</g>
</g>
</svg>
