<?xml version="1.0" encoding="UTF-8" standalone="no"?>
<svg
   xmlns:dc="http://purl.org/dc/elements/1.1/"
   xmlns:cc="http://creativecommons.org/ns#"
   xmlns:rdf="http://www.w3.org/1999/02/22-rdf-syntax-ns#"
   xmlns:svg="http://www.w3.org/2000/svg"
   xmlns="http://www.w3.org/2000/svg"
   xml:space="preserve"
   viewBox="0 0 505.8 663.8"
   height="663.8px"
   width="505.8px"
   y="0px"
   x="0px"
   id="レイヤー_1"
   version="1.2"><metadata
   id="metadata72"><rdf:RDF><cc:Work
       rdf:about=""><dc:format>image/svg+xml</dc:format><dc:type
         rdf:resource="http://purl.org/dc/dcmitype/StillImage" /><dc:title></dc:title></cc:Work></rdf:RDF></metadata><defs
   id="defs70">
	
	
	
	
	
	
</defs>
<g
   id="g8">
		<path
   d="m 261.8,454.8 c 12.4,-20.3 50.7,-14.8 54.3,-58 1.8,-22.1 21.9,-29.9 36.7,-35 15.8,-5.5 35.5,-13.2 38.4,-19.4 1.9,-4.1 -15.8,-20.2 -23,-21.6 -11.8,-2.3 -82.1,13.1 -85.6,20.2 -3.5,7.1 -3.3,14.1 -6.2,13.2 -2.5,-0.8 -17.9,0.4 -25.8,2.5 -10.2,2.8 -25.6,14.7 -33.9,26.4"
   id="path2"
   style="fill:#df731b" />
		<path
   d="m 391.2,342.4 c 1.9,-4.1 -15.8,-20.2 -23,-21.6 -8.8,-1.7 -49.8,6.4 -71.7,13.5 4.9,1.4 11.6,3.6 19.4,7.2 13.1,6 19.2,8.4 21.8,26.4 5.1,-2.6 10.4,-4.5 15.1,-6.1 15.8,-5.5 35.4,-13.2 38.4,-19.4 z"
   id="path4"
   style="fill:#332f20" />
		<path
   d="m 261.8,454.8 c 12.4,-20.3 50.7,-14.8 54.3,-58 1.8,-22.1 21.9,-29.9 36.7,-35 15.8,-5.5 35.5,-13.2 38.4,-19.4 1.9,-4.1 -15.8,-20.2 -23,-21.6 -11.8,-2.3 -82.1,13.1 -85.6,20.2 -3.5,7.1 -3.3,14.1 -6.2,13.2 -2.5,-0.8 -17.9,0.4 -25.8,2.5 -10.2,2.8 -25.6,14.7 -33.9,26.4"
   id="path6"
   style="fill:none;stroke:#000000;stroke-width:4;stroke-linecap:round;stroke-linejoin:round" />
	</g><g
   id="g16">
		<path
   d="m 231.7,548.4 c 22,-21.8 54.8,-37.6 68.9,-53.2 14.1,-15.6 39.4,-40.6 39,-62.8 -0.4,-22.2 -18.5,-68.4 -53,-72.1 -44.1,-4.7 -90.6,21 -104.3,38.5 -13.7,17.6 -39,19.1 -77.7,60.5 C 66,500.7 46,539.3 31.2,559.2 16.4,579.2 2,611.6 2,616.3 c 0,4.7 23.8,14.8 29.7,12.1 5.9,-2.7 26.5,-32.4 39.8,-46.8 13.3,-14.4 30.1,-29.7 34.7,-33.6 4.7,-3.9 41,-2.7 46.5,2 5.4,4.6 68.7,8.7 79,-1.6 z"
   id="path10"
   style="fill:#df731b" />
		<path
   d="m 2,616.3 c 0,4.7 23.8,14.8 29.7,12.1 4.8,-2.2 19.5,-22.5 32,-37.7 C 53.2,583.4 39.5,577.5 21.5,574.2 10.7,592.4 2,612.7 2,616.3 Z"
   id="path12"
   style="fill:#332f20" />
		<path
   d="m 231.7,548.4 c 22,-21.8 54.8,-37.6 68.9,-53.2 14.1,-15.6 39.4,-40.6 39,-62.8 -0.4,-22.2 -18.5,-68.4 -53,-72.1 -44.1,-4.7 -90.6,21 -104.3,38.5 -13.7,17.6 -39,19.1 -77.7,60.5 C 66,500.7 46,539.3 31.2,559.2 16.4,579.2 2,611.6 2,616.3 c 0,4.7 23.8,14.8 29.7,12.1 5.9,-2.7 26.5,-32.4 39.8,-46.8 13.3,-14.4 30.1,-29.7 34.7,-33.6 4.7,-3.9 41,-2.7 46.5,2 5.4,4.6 68.7,8.7 79,-1.6 z"
   id="path14"
   style="fill:none;stroke:#000000;stroke-width:4;stroke-linecap:round;stroke-linejoin:round" />
	</g><g
   id="g38">
		<path
   d="m 163.8,525.6 c 1.1,9.8 -13.8,36.1 -28.2,60.9 -15,25.9 -34.5,59.9 -33.9,65.5 0.4,4.4 28.1,10 32.2,9.8 4.1,-0.2 36.9,-37.8 48.9,-54 8.6,-11.6 40.6,-51.2 49.4,-59.8"
   id="path32"
   style="fill:#df731b" />
		<path
   d="m 101.7,652 c 0.4,4.4 28.1,10 32.2,9.8 3.2,-0.2 23.8,-23 38.4,-40.7 -12.8,-7.6 -27.5,-12.4 -46.9,-16.8 -12.3,21.6 -24.1,43.3 -23.7,47.7 z"
   id="path34"
   style="fill:#332f20" />
		<path
   d="m 163.8,525.6 c 1.1,9.8 -13.8,36.1 -28.2,60.9 -15,25.9 -34.5,59.9 -33.9,65.5 0.4,4.4 28.1,10 32.2,9.8 4.1,-0.2 36.9,-37.8 48.9,-54 8.6,-11.6 40.6,-51.2 49.4,-59.8"
   id="path36"
   style="fill:none;stroke:#000000;stroke-width:4;stroke-linecap:round;stroke-linejoin:round" />
	</g><g
   id="g46">
		<path
   d="m 316.2,478.1 c 15.6,-18 52.5,-6.1 63.2,-48 5.5,-21.5 26.6,-25.8 42,-28.4 16.5,-2.7 37.2,-7 41.1,-12.6 2.6,-3.7 -12.1,-22.6 -19.1,-25.2 -11.3,-4.2 -83.1,-0.9 -87.8,5.5 -4.6,6.4 -5.6,13.3 -8.3,12 -2.3,-1.2 -17.7,-2.6 -25.9,-1.8 -10.5,1 -27.7,10.2 -37.9,20.3"
   id="path40"
   style="fill:#df731b" />
		<path
   d="m 462.6,389.1 c 2.6,-3.7 -12.1,-22.6 -19.1,-25.2 -8.4,-3.1 -50.1,-2.1 -73,1.3 4.6,2.2 10.9,5.5 17.9,10.4 11.9,8.1 17.5,11.5 17.1,29.7 5.4,-1.7 11,-2.7 15.9,-3.5 16.6,-2.8 37.3,-7.1 41.2,-12.7 z"
   id="path42"
   style="fill:#332f20" />
		<path
   d="m 316.2,478.1 c 15.6,-18 52.5,-6.1 63.2,-48 5.5,-21.5 26.6,-25.8 42,-28.4 16.5,-2.7 37.2,-7 41.1,-12.6 2.6,-3.7 -12.1,-22.6 -19.1,-25.2 -11.3,-4.2 -83.1,-0.9 -87.8,5.5 -4.6,6.4 -5.6,13.3 -8.3,12 -2.3,-1.2 -17.7,-2.6 -25.9,-1.8 -10.5,1 -27.7,10.2 -37.9,20.3"
   id="path44"
   style="fill:none;stroke:#000000;stroke-width:4;stroke-linecap:round;stroke-linejoin:round" />
	</g><g
   id="g64">
		<g
   id="g54">
			<path
   d="m 182.9,492.2 c 0,5.3 -4.3,9.7 -9.7,9.7 -5.3,0 -9.7,-4.3 -9.7,-9.7 0,-5.4 4.3,-9.7 9.7,-9.7 5.3,0 9.7,4.4 9.7,9.7 z"
   id="path48"
   style="fill:none;stroke:#20bf00;stroke-width:3;stroke-linecap:round;stroke-linejoin:round" />
			
				<line
   x1="156.3"
   y1="492.20001"
   x2="190.10001"
   y2="492.20001"
   id="line50"
   style="fill:none;stroke:#20bf00;stroke-width:2.70659995;stroke-linecap:round;stroke-linejoin:round" />
			
				<line
   x1="173.2"
   y1="476.5"
   x2="173.2"
   y2="507.89999"
   id="line52"
   style="fill:none;stroke:#20bf00;stroke-width:2.72119999;stroke-linecap:round;stroke-linejoin:round" />
		</g>
		<g
   id="g62">
			<path
   d="m 144.4,517 c 0,5.3 -4.3,9.7 -9.7,9.7 -5.4,0 -9.7,-4.3 -9.7,-9.7 0,-5.4 4.3,-9.7 9.7,-9.7 5.4,0 9.7,4.3 9.7,9.7 z"
   id="path56"
   style="fill:none;stroke:#20bf00;stroke-width:3;stroke-linecap:round;stroke-linejoin:round" />
			
				<line
   x1="117.8"
   y1="517"
   x2="151.7"
   y2="517"
   id="line58"
   style="fill:none;stroke:#20bf00;stroke-width:2.70659995;stroke-linecap:round;stroke-linejoin:round" />
			
				<line
   x1="134.8"
   y1="501.29999"
   x2="134.8"
   y2="532.70001"
   id="line60"
   style="fill:none;stroke:#20bf00;stroke-width:2.72119999;stroke-linecap:round;stroke-linejoin:round" />
		</g>
	</g>
</svg>