<?xml version="1.0" encoding="utf-8"?>
<!-- Generator: Adobe Illustrator 22.0.1, SVG Export Plug-In . SVG Version: 6.00 Build 0)  -->
<svg version="1.2" baseProfile="tiny" id="レイヤー_1"
	 xmlns="http://www.w3.org/2000/svg" xmlns:xlink="http://www.w3.org/1999/xlink" x="0px" y="0px" width="315.4px" height="227.8px"
	 viewBox="0 0 315.4 227.8" xml:space="preserve">
<g id="体_横_2">
	<g>
		<path fill="#DF731B" d="M209.1,78.9c-42.5-5.8-73.5,6.3-65.8,39c7.6,32.7,34.5,50.6,33.6,55.5c-0.9,4.9-23.7,17.9-21.9,23.3
			c1.8,5.4,21.9,9.9,29.6,8.1c7.6-1.8,52.4-13.4,54.2-19.7c1.8-6.3,0.9-14.8-3.1-19.3s4,4.9,13-7.6c9-12.5,17.5-26.9,14.3-55.5"/>
		<path fill="#332F20" d="M176.8,173.4c-0.9,4.9-23.7,17.9-21.9,23.3c1.8,5.4,21.9,9.9,29.6,8.1c6-1.4,35.1-8.9,48-15.1
			c-12.3-6.8-37.2-13.9-55.6-16.5C176.8,173.2,176.8,173.3,176.8,173.4z"/>
		<path fill="none" stroke="#000000" stroke-width="4" stroke-linecap="round" stroke-linejoin="round" d="M209.1,78.9
			c-42.5-5.8-73.5,6.3-65.8,39c7.6,32.7,34.5,50.6,33.6,55.5c-0.9,4.9-23.7,17.9-21.9,23.3c1.8,5.4,21.9,9.9,29.6,8.1
			c7.6-1.8,52.4-13.4,54.2-19.7c1.8-6.3,0.9-14.8-3.1-19.3s4,4.9,13-7.6c9-12.5,17.5-26.9,14.3-55.5"/>
	</g>
	<g>
		<path fill="#DF731B" d="M72.9,71c1.1,21.3-10.2,28.7-33.8,42.4S4.9,127.1,2.5,130.8c-2.4,3.7,4.5,27.4,9.3,31
			c4.9,3.5,36.2-8.6,50.2-13.9c14-5.3,24.5-11.7,33.3-17.7c27-18.4,19.5-74.1,19.5-74.1L72.9,71z"/>
		<path fill="#332F20" d="M2.5,130.8c-2.4,3.7,4.5,27.4,9.3,31c3.5,2.5,20.5-2.9,35-8.2c-3.2-12-9-24.2-15.7-35.8
			C13,127.1,4.6,127.5,2.5,130.8z"/>
		<path fill="none" stroke="#000000" stroke-width="4" stroke-linecap="round" stroke-linejoin="round" d="M72.9,71
			c1.1,21.3-10.2,28.7-33.8,42.4S4.9,127.1,2.5,130.8c-2.4,3.7,4.5,27.4,9.3,31c4.9,3.5,36.2-8.6,50.2-13.9
			c14-5.3,24.5-11.7,33.3-17.7c27-18.4,19.5-74.1,19.5-74.1L72.9,71z"/>
	</g>
	<g>
		<path fill="#DF731B" d="M81.9,21.9c-12.2,8.6-19.1,17.6-19.1,24.4c0,1.4,0.3,2.7,0.9,3.9c9.1,18.7,12,26.6,12,26.7
			c13.2,31.4,31.9,57.3,55.8,77c19.9,16.5,43.2,28.4,67.5,34.6c31.8,8,71.8-3.2,93.2-17.8c11.8-8.1,18.6-17.1,19.7-26.1
			c2.6-20.5,1.5-38.3-3.2-52.8c-7.1-22-22.5-36.7-45.6-43.8c-18.6-5.7-31.6-7.5-42.1-8.9c-19-2.6-29.5-4-50.5-25.2
			C147.4-9.6,103.9,6.4,81.9,21.9z"/>
		<path fill="#FFFFCC" d="M211,138.3c-52.4-6.7-90.9-34-101.2-43.4c-5.5-5-27.2-23.8-33-22.9c-1,0.2-2,0.4-2.9,0.6
			c1.3,3,1.8,4.5,1.8,4.5c13.2,31.4,31.9,57.3,55.8,77c19.9,16.5,43.2,28.4,67.5,34.6c23.6,6,51.8,1.3,73.4-7.5
			C260.4,163.1,240.2,142,211,138.3z"/>
		<path fill="none" stroke="#000000" stroke-width="4" d="M81.9,21.9c-12.2,8.6-19.1,17.6-19.1,24.4c0,1.4,0.3,2.7,0.9,3.9
			c9.1,18.7,12,26.6,12,26.7c13.2,31.4,31.9,57.3,55.8,77c19.9,16.5,43.2,28.4,67.5,34.6c31.8,8,71.8-3.2,93.2-17.8
			c11.8-8.1,18.6-17.1,19.7-26.1c2.6-20.5,1.5-38.3-3.2-52.8c-7.1-22-22.5-36.7-45.6-43.8c-18.6-5.7-31.6-7.5-42.1-8.9
			c-19-2.6-29.5-4-50.5-25.2C147.4-9.6,103.9,6.4,81.9,21.9z"/>
	</g>
	<g>
		<path fill="#DF731B" d="M259,95.8c-42.5-5.8-73.5,6.3-65.8,39c7.6,32.7,34.5,50.6,33.6,55.5c-0.9,4.9-23.7,17.9-21.9,23.3
			c1.8,5.4,21.9,9.9,29.6,8.1c7.6-1.8,52.4-13.4,54.2-19.7c1.8-6.3,0.9-14.8-3.1-19.3c-4-4.5,4,4.9,13-7.6s17.5-26.9,14.3-55.5"/>
		<path fill="#332F20" d="M226.7,190.3c-0.9,4.9-23.7,17.9-21.9,23.3c1.8,5.4,21.9,9.9,29.6,8.1c6-1.4,35.1-8.9,48-15.1
			c-12.3-6.8-37.2-13.9-55.6-16.5C226.7,190,226.7,190.1,226.7,190.3z"/>
		<path fill="none" stroke="#000000" stroke-width="4" stroke-linecap="round" stroke-linejoin="round" d="M259,95.8
			c-42.5-5.8-73.5,6.3-65.8,39c7.6,32.7,34.5,50.6,33.6,55.5c-0.9,4.9-23.7,17.9-21.9,23.3c1.8,5.4,21.9,9.9,29.6,8.1
			c7.6-1.8,52.4-13.4,54.2-19.7c1.8-6.3,0.9-14.8-3.1-19.3c-4-4.5,4,4.9,13-7.6s17.5-26.9,14.3-55.5"/>
	</g>
	<g>
		<path fill="#DF731B" d="M118.3,97.9c-1,19.3,11.2,36.3,17.9,65.4c6.7,29.1,3.6,56.9,6.3,60.5c2.7,3.5,30.9,1.9,34-0.8
			c3.1-2.7,2.1-46.1,3.6-66.3c1-13-1.2-19.4-0.4-28.3"/>
		<path fill="#332F20" d="M176.5,222.9c1.8-1.6,2.2-17.3,2.5-34c-12.4,1-25.4,0.1-39.2-2.7c1.8,19.4,0.7,34.9,2.7,37.4
			C145.2,227.3,173.4,225.6,176.5,222.9z"/>
		<path fill="none" stroke="#000000" stroke-width="4" stroke-linecap="round" stroke-linejoin="round" d="M118.3,97.9
			c-1,19.3,11.2,36.3,17.9,65.4c6.7,29.1,3.6,56.9,6.3,60.5c2.7,3.5,30.9,1.9,34-0.8c3.1-2.7,2.1-46.1,3.6-66.3
			c1-13-1.2-19.4-0.4-28.3"/>
	</g>
	<g>
		<path fill="none" stroke="#20BF00" stroke-width="3" stroke-linecap="round" stroke-linejoin="round" d="M125.9,29.6
			c0,5.3-4.3,9.7-9.7,9.7s-9.7-4.3-9.7-9.7s4.3-9.7,9.7-9.7C121.6,20,125.9,24.3,125.9,29.6z"/>
		
			<line fill="none" stroke="#20BF00" stroke-width="2.7066" stroke-linecap="round" stroke-linejoin="round" x1="99.3" y1="29.6" x2="133.2" y2="29.6"/>
		
			<line fill="none" stroke="#20BF00" stroke-width="2.7212" stroke-linecap="round" stroke-linejoin="round" x1="116.2" y1="13.9" x2="116.2" y2="45.4"/>
	</g>
</g>
</svg>
