<?xml version="1.0" encoding="utf-8"?>
<!-- Generator: Adobe Illustrator 22.0.1, SVG Export Plug-In . SVG Version: 6.00 Build 0)  -->
<svg version="1.2" baseProfile="tiny" id="レイヤー_1"
	 xmlns="http://www.w3.org/2000/svg" xmlns:xlink="http://www.w3.org/1999/xlink" x="0px" y="0px" width="217.5px" height="241.7px"
	 viewBox="0 0 217.5 241.7" xml:space="preserve">
<g id="体_後_xFF08_通常_xFF09_">
	<g>
		<path fill="none" stroke="#20BF00" stroke-width="3" stroke-linecap="round" stroke-linejoin="round" d="M178.4,79
			c0,5.3-4.3,9.7-9.7,9.7S159,84.4,159,79c0-5.3,4.3-9.7,9.7-9.7S178.4,73.7,178.4,79z"/>
		
			<line fill="none" stroke="#20BF00" stroke-width="2.7066" stroke-linecap="round" stroke-linejoin="round" x1="151.8" y1="79" x2="185.6" y2="79"/>
		
			<line fill="none" stroke="#20BF00" stroke-width="2.7212" stroke-linecap="round" stroke-linejoin="round" x1="168.7" y1="63.3" x2="168.7" y2="94.7"/>
	</g>
	<g>
		<path fill="#DF731B" d="M80.7,112c1.3,50.2,15.2,115.8,19.2,120.4c4,4.6,33.7,3.3,36.4-2c2.6-5.3-9.3-64.2-7.3-92.6"/>
		<path fill="#332F20" d="M136.2,230.4c1.2-2.4-0.6-19.4-2.8-39.8c-14.8,2.5-24.8,2.1-42.9-1.1c3.7,23.2,7.5,40.8,9.3,42.9
			C103.8,237.1,133.5,235.7,136.2,230.4z"/>
		<path fill="none" stroke="#000000" stroke-width="4" stroke-linecap="round" stroke-linejoin="round" d="M80.7,112
			c1.3,50.2,15.2,115.8,19.2,120.4c4,4.6,33.7,3.3,36.4-2c2.6-5.3-9.3-64.2-7.3-92.6"/>
	</g>
	<g>
		<path fill="#DF731B" d="M111.7,2.3C150.9-0.4,214.2,14.2,215.5,75c1.3,60.8-35,80-80,80c-44.9,0-60.1-2.8-60.1-2.8s-2,5.4-4,8.7
			c-2,3.3,23.1,72.2,20.5,75.5c-2.6,3.3-30.4,5.3-36.4,0c-5.9-5.3-39-61.6-39-76.1c0-14.5,12.6-12.6,12.6-12.6S2,128.5,2,84.3
			C2,40,23.8,8.2,111.7,2.3z"/>
		<path fill="#332F20" d="M24.6,181.2c10.1,24.7,27.3,52,30.9,55.2c5.9,5.3,33.7,3.3,36.4,0c1.5-1.9-9.6-30.1-16.1-54.9
			C64.9,186.9,48.8,185.1,24.6,181.2z"/>
		<path fill="none" stroke="#000000" stroke-width="4" stroke-linecap="round" stroke-linejoin="round" d="M111.7,2.3
			C150.9-0.4,214.2,14.2,215.5,75c1.3,60.8-35,80-80,80c-44.9,0-60.1-2.8-60.1-2.8s-2,5.4-4,8.7c-2,3.3,23.1,72.2,20.5,75.5
			c-2.6,3.3-30.4,5.3-36.4,0c-5.9-5.3-39-61.6-39-76.1c0-14.5,12.6-12.6,12.6-12.6S2,128.5,2,84.3C2,40,23.8,8.2,111.7,2.3z"/>
	</g>
	<path fill="#FFFFCC" d="M130.6,101.9c-14.8-5.8-32.9-11.7-53.2-12.3c-22.9-0.6-36.8,3.9-37.4,14.8c-0.2,3.9,1.3,25.5,16.8,36.8
		c15.5,11.3,21.6,10.6,33.9,11.3c12.3,0.6,47.8,2.9,56.5-4.5C155.7,140.6,130.6,101.9,130.6,101.9z"/>
	<path fill="none" stroke="#000000" stroke-width="4" stroke-linecap="round" stroke-linejoin="round" d="M75.4,152.2
		c-14.2-2.9-36.5-22.6-35.2-48.4"/>
	<g>
		<path fill="#DF731B" d="M214.8,87.6c-2.6,37-14.5,63.6-15.9,83.4c-1.3,19.8,2,57.5-2.6,59.5c-4.6,2-26.4,5.3-31.7-0.7
			c-5.3-5.9-5.3-73.5-7.9-103.9"/>
		<path fill="#332F20" d="M196.3,230.4c3.5-1.5,2.4-23.9,2.3-43.3c-10.6,2.2-23.5,2.5-38.6,0.7c1,21.6,2.3,39.2,4.6,41.9
			C169.9,235.7,191.7,232.4,196.3,230.4z"/>
		<path fill="none" stroke="#000000" stroke-width="4" stroke-linecap="round" stroke-linejoin="round" d="M214.8,87.6
			c-2.6,37-14.5,63.6-15.9,83.4c-1.3,19.8,2,57.5-2.6,59.5c-4.6,2-26.4,5.3-31.7-0.7c-5.3-5.9-5.3-73.5-7.9-103.9"/>
	</g>
	<g>
		<path fill="#DF731B" d="M134.2,61.8c-24.5,34.4-25.8,62.8-16.5,83.9c7.6,17.3,14.5,12.6,14.5,12.6s-11.2-2.6-4.6,17.8
			c6.6,20.5,39.7,52.3,45.6,58.3s34.4,5.9,37,0c2.6-5.9-26.4-58.9-27.8-62.9c-1.3-4,16.5-7.9,18.5-52.2c2-44.3-9.3-60.2-9.3-60.2"/>
		<path fill="#332F20" d="M210.2,234.4c1.8-4.1-16.8-34.6-25.7-56.6c-7.7,11.9-26.7,13.7-49.2,12.3c12.2,20.6,33.8,40.3,37.8,44.3
			C179.1,240.4,207.6,240.4,210.2,234.4z"/>
		<path fill="none" stroke="#000000" stroke-width="4" stroke-linecap="round" stroke-linejoin="round" d="M134.2,61.8
			c-24.5,34.4-25.8,62.8-16.5,83.9c7.6,17.3,14.5,12.6,14.5,12.6s-11.2-2.6-4.6,17.8c6.6,20.5,39.7,52.3,45.6,58.3s34.4,5.9,37,0
			c2.6-5.9-26.4-58.9-27.8-62.9c-1.3-4,16.5-7.9,18.5-52.2c2-44.3-9.3-60.2-9.3-60.2"/>
	</g>
</g>
</svg>
