<?xml version="1.0" encoding="utf-8"?>
<!-- Generator: Adobe Illustrator 22.0.1, SVG Export Plug-In . SVG Version: 6.00 Build 0)  -->
<svg version="1.2" baseProfile="tiny" id="レイヤー_1"
	 xmlns="http://www.w3.org/2000/svg" xmlns:xlink="http://www.w3.org/1999/xlink" x="0px" y="0px" width="254.9px" height="227.8px"
	 viewBox="0 0 254.9 227.8" xml:space="preserve">
<g id="体_横">
	<g>
		<path fill="#DF731B" d="M148.6,78.9c-42.5-5.8-73.5,6.3-65.8,39c7.6,32.7,34.5,50.6,33.6,55.5c-0.9,4.9-23.7,17.9-21.9,23.3
			c1.8,5.4,21.9,9.9,29.6,8.1c7.6-1.8,52.4-13.4,54.2-19.7c1.8-6.3,0.9-14.8-3.1-19.3c-4-4.5,4,4.9,13-7.6
			c9-12.5,17.5-26.9,14.3-55.5"/>
		<path fill="#332F20" d="M116.4,173.4c-0.9,4.9-23.7,17.9-21.9,23.3c1.8,5.4,21.9,9.9,29.6,8.1c6-1.4,35.1-8.9,48-15.1
			c-12.3-6.8-37.2-13.9-55.6-16.5C116.4,173.2,116.4,173.3,116.4,173.4z"/>
		<path fill="none" stroke="#000000" stroke-width="4" stroke-linecap="round" stroke-linejoin="round" d="M148.6,78.9
			c-42.5-5.8-73.5,6.3-65.8,39c7.6,32.7,34.5,50.6,33.6,55.5c-0.9,4.9-23.7,17.9-21.9,23.3c1.8,5.4,21.9,9.9,29.6,8.1
			c7.6-1.8,52.4-13.4,54.2-19.7c1.8-6.3,0.9-14.8-3.1-19.3c-4-4.5,4,4.9,13-7.6c9-12.5,17.5-26.9,14.3-55.5"/>
	</g>
	<g>
		<path fill="#DF731B" d="M2,49.6L6.4,72c11.6,43,36.3,75.2,44.8,101.2c8.5,26,6.3,36.3,9.4,39.4c3.1,3.1,27.8,1.3,32.2-2.7
			c4.5-4-0.9-37.2-3.1-51.9c-2.2-14.8-12.1-40.8-18.4-59.1c-6.3-18.4-16.6-37.2-16.6-37.2L2,49.6z"/>
		<path fill="#332F20" d="M60.6,212.6c3.1,3.1,27.8,1.3,32.2-2.7c3.6-3.2,0.9-24.7-1.5-40.8c-13.3,4.1-26.1,4.5-40.6,3
			c0.1,0.4,0.3,0.8,0.4,1.1C59.7,199.2,57.5,209.5,60.6,212.6z"/>
		<path fill="none" stroke="#000000" stroke-width="4" stroke-linecap="round" stroke-linejoin="round" d="M2,49.6L6.4,72
			c11.6,43,36.3,75.2,44.8,101.2c8.5,26,6.3,36.3,9.4,39.4c3.1,3.1,27.8,1.3,32.2-2.7c4.5-4-0.9-37.2-3.1-51.9
			c-2.2-14.8-12.1-40.8-18.4-59.1c-6.3-18.4-16.6-37.2-16.6-37.2L2,49.6z"/>
	</g>
	<g>
		<path fill="#DF731B" d="M21.5,21.9C9.3,30.6,2.4,39.5,2.4,46.4c0,1.4,0.3,2.7,0.9,3.9c9.1,18.7,12,26.6,12,26.7
			c13.2,31.4,31.9,57.3,55.8,77c19.9,16.5,43.2,28.4,67.5,34.6c31.8,8,71.8-3.2,93.2-17.8c11.8-8.1,18.6-17.1,19.7-26.1
			c2.6-20.5,1.5-38.3-3.2-52.8c-7.1-22-22.5-36.7-45.6-43.8c-18.6-5.7-31.6-7.5-42.1-8.9c-19-2.6-29.5-4-50.5-25.2
			C87-9.6,43.5,6.4,21.5,21.9z"/>
		<path fill="#FFFFCC" d="M150.6,138.3c-52.4-6.7-90.9-34-101.2-43.4c-5.5-5-27.2-23.8-33-22.9c-1,0.2-2,0.4-2.9,0.6
			c1.3,3,1.8,4.5,1.8,4.5c13.2,31.4,31.9,57.3,55.8,77c19.9,16.5,43.2,28.4,67.5,34.6c23.6,6,51.8,1.3,73.4-7.5
			C199.9,163.1,179.8,142,150.6,138.3z"/>
		<path fill="none" stroke="#000000" stroke-width="4" d="M21.5,21.9C9.3,30.6,2.4,39.5,2.4,46.4c0,1.4,0.3,2.7,0.9,3.9
			c9.1,18.7,12,26.6,12,26.7c13.2,31.4,31.9,57.3,55.8,77c19.9,16.5,43.2,28.4,67.5,34.6c31.8,8,71.8-3.2,93.2-17.8
			c11.8-8.1,18.6-17.1,19.7-26.1c2.6-20.5,1.5-38.3-3.2-52.8c-7.1-22-22.5-36.7-45.6-43.8c-18.6-5.7-31.6-7.5-42.1-8.9
			c-19-2.6-29.5-4-50.5-25.2C87-9.6,43.5,6.4,21.5,21.9z"/>
	</g>
	<g>
		<path fill="#DF731B" d="M198.5,95.8c-42.5-5.8-73.5,6.3-65.8,39c7.6,32.7,34.5,50.6,33.6,55.5c-0.9,4.9-23.7,17.9-21.9,23.3
			c1.8,5.4,21.9,9.9,29.6,8.1c7.6-1.8,52.4-13.4,54.2-19.7c1.8-6.3,0.9-14.8-3.1-19.3c-4-4.5,4,4.9,13-7.6s17.5-26.9,14.3-55.5"/>
		<path fill="#332F20" d="M166.3,190.3c-0.9,4.9-23.7,17.9-21.9,23.3c1.8,5.4,21.9,9.9,29.6,8.1c6-1.4,35.1-8.9,48-15.1
			c-12.3-6.8-37.2-13.9-55.6-16.5C166.3,190,166.3,190.1,166.3,190.3z"/>
		<path fill="none" stroke="#000000" stroke-width="4" stroke-linecap="round" stroke-linejoin="round" d="M198.5,95.8
			c-42.5-5.8-73.5,6.3-65.8,39c7.6,32.7,34.5,50.6,33.6,55.5c-0.9,4.9-23.7,17.9-21.9,23.3c1.8,5.4,21.9,9.9,29.6,8.1
			c7.6-1.8,52.4-13.4,54.2-19.7c1.8-6.3,0.9-14.8-3.1-19.3c-4-4.5,4,4.9,13-7.6s17.5-26.9,14.3-55.5"/>
	</g>
	<g>
		<path fill="#DF731B" d="M57.9,97.9c-1,19.3,11.2,36.3,17.9,65.4c6.7,29.1,3.6,56.9,6.3,60.5c2.7,3.5,30.9,1.9,34-0.8
			c3.1-2.7,2.1-46.1,3.6-66.3c1-13-1.2-19.4-0.4-28.3"/>
		<path fill="#332F20" d="M116.1,222.9c1.8-1.6,2.2-17.3,2.5-34c-12.4,1-25.4,0.1-39.2-2.7c1.8,19.4,0.7,34.9,2.7,37.4
			C84.8,227.3,113,225.6,116.1,222.9z"/>
		<path fill="none" stroke="#000000" stroke-width="4" stroke-linecap="round" stroke-linejoin="round" d="M57.9,97.9
			c-1,19.3,11.2,36.3,17.9,65.4c6.7,29.1,3.6,56.9,6.3,60.5c2.7,3.5,30.9,1.9,34-0.8c3.1-2.7,2.1-46.1,3.6-66.3
			c1-13-1.2-19.4-0.4-28.3"/>
	</g>
	<g>
		<path fill="none" stroke="#20BF00" stroke-width="3" stroke-linecap="round" stroke-linejoin="round" d="M65.5,29.6
			c0,5.3-4.3,9.7-9.7,9.7c-5.3,0-9.7-4.3-9.7-9.7s4.3-9.7,9.7-9.7C61.1,20,65.5,24.3,65.5,29.6z"/>
		
			<line fill="none" stroke="#20BF00" stroke-width="2.7066" stroke-linecap="round" stroke-linejoin="round" x1="38.9" y1="29.6" x2="72.7" y2="29.6"/>
		
			<line fill="none" stroke="#20BF00" stroke-width="2.7212" stroke-linecap="round" stroke-linejoin="round" x1="55.8" y1="13.9" x2="55.8" y2="45.4"/>
	</g>
</g>
</svg>
