<?xml version="1.0" encoding="utf-8"?>
<!-- Generator: Adobe Illustrator 22.0.1, SVG Export Plug-In . SVG Version: 6.00 Build 0)  -->
<svg version="1.2" baseProfile="tiny" id="レイヤー_1"
	 xmlns="http://www.w3.org/2000/svg" xmlns:xlink="http://www.w3.org/1999/xlink" x="0px" y="0px" width="278.6px" height="209.1px"
	 viewBox="0 0 278.6 209.1" xml:space="preserve">
<g id="体_正面_xFF08_お座り2_xFF09_">
	<g>
		<path fill="#DF731B" d="M93,59.9c0,10.1,7.4,28.4,2.4,45.3c-4,13.2,7.5,23.1,7.5,28.3c0,27.4,31.2,48.5,68.5,48.5
			c37.2,0,68.9-19.6,68.9-50.4c0-5.2,11.8-13.3,7.5-26.4C242.2,88.7,250,70,250,59.9C250,28,214.8,2,171.5,2S93,28,93,59.9z"/>
		<path fill="#FFFFCC" d="M218.3,60.5c15.9-12.2-1.6-38.6-36.7-40.9c-4.1-0.3-16.1-0.3-20.2,0c-35.1,2.3-52.7,28.6-36.7,40.9
			c14.2,10.9,15,16.9,11.8,21.5c-9.9,13.5-16.1,32.6-16.1,53.8c0,13.4,2.4,25.1,6.7,34.9c12,7.1,27.5,11.4,44.1,11.4
			c16.7,0,32.2-3.9,44.3-11.1c4.4-9.9,6.9-21.8,6.9-35.3c0-21.2-6.2-40.3-16.1-53.8C203,76.8,204.1,71.4,218.3,60.5z"/>
		<path fill="none" stroke="#000000" stroke-width="4" stroke-linecap="round" stroke-linejoin="round" d="M93.7,59.9
			c0,10.1,6.6,28.4,1.6,45.3c-4,13.2,7.5,23.1,7.5,28.3c0,27.4,31.2,48.5,68.5,48.5c37.2,0,68.9-19.6,68.9-50.4
			c0-5.2,11.8-13.3,7.5-26.4c-5.4-16.5,1.6-35.2,1.6-45.3C249.2,28,214.8,2,171.5,2S93.7,28,93.7,59.9z"/>
	</g>
	<g>
		<g>
			<path fill="#DF731B" d="M242.2,73c23.3,12.3,33.5,34.4,34.4,58c1.1,31.6-17.2,41.4-14.9,44.8c2.3,3.4,20.1,15.5,6.9,22.4
				c-13.2,6.9-45.4-2.9-54-9.2c-8.6-6.3-2.7-10.6-2.7-15.2c0,0,17-15.9,22.3-31c2.9-8.3,3.3-19.2,2.3-25.4"/>
			<path fill="#332F20" d="M214.5,189c8.6,6.3,40.8,16.1,54,9.2s-4.6-19-6.9-22.4c-0.2-0.2-0.2-0.5-0.2-0.9
				c-15.3-0.5-35.7,2.4-43.6,5.8c-2.7,1.2-5.2,2.5-7.2,4C211.4,186.1,212.6,187.6,214.5,189z"/>
			<path fill="none" stroke="#000000" stroke-width="4" stroke-linecap="round" stroke-linejoin="round" d="M242.2,73
				c23.3,12.3,33.5,34.4,34.4,58c1.1,31.6-17.2,41.4-14.9,44.8c2.3,3.4,20.1,15.5,6.9,22.4c-13.2,6.9-45.4-2.9-54-9.2
				c-8.6-6.3-2.7-10.6-2.7-15.2c0,0,17-15.9,22.3-31c2.9-8.3,3.3-19.2,2.3-25.4"/>
		</g>
		<g>
			<path fill="#DF731B" d="M100.8,73c-23.3,12.3-33.5,34.4-34.4,58c-1.2,31.6,17.2,41.4,14.9,44.8c-2.3,3.4-20.1,15.5-6.9,22.4
				s45.4-2.9,54-9.2c8.6-6.3,2.7-10.6,2.7-15.2c0,0-17-15.9-22.3-31c-2.9-8.3-3.3-19.2-2.3-25.4"/>
			<path fill="#332F20" d="M128.5,189c-8.6,6.3-40.8,16.1-54,9.2s4.6-19,6.9-22.4c0.2-0.2,0.2-0.5,0.2-0.9
				c15.3-0.5,35.7,2.4,43.6,5.8c2.7,1.2,5.2,2.5,7.2,4C131.6,186.1,130.4,187.6,128.5,189z"/>
			<path fill="none" stroke="#000000" stroke-width="4" stroke-linecap="round" stroke-linejoin="round" d="M100.8,73
				c-23.3,12.3-33.5,34.4-34.4,58c-1.2,31.6,17.2,41.4,14.9,44.8c-2.3,3.4-20.1,15.5-6.9,22.4s45.4-2.9,54-9.2
				c8.6-6.3,2.7-10.6,2.7-15.2c0,0-17-15.9-22.3-31c-2.9-8.3-3.3-19.2-2.3-25.4"/>
		</g>
	</g>
	<g>
		<g>
			<path fill="#DF731B" d="M109.8,90.9C61.4,92.5,5.8,81.1,3.6,79.2c-2.1-1.9-2.1-23.2,0-27.7c2.1-4.4,25.7-2,61.6-1.1
				c47.2,1.1,41.2-8.1,63.4-4.6"/>
			<path fill="#332F20" d="M33.6,49.3C15.9,48.7,5,48.6,3.6,51.5c-2.1,4.4-2.1,25.8,0,27.7c1,0.9,12.8,3.7,30,6.3
				C34.4,76.3,34.6,64.8,33.6,49.3z"/>
			<path fill="none" stroke="#000000" stroke-width="4" stroke-linecap="round" stroke-linejoin="round" d="M109.8,90.9
				C61.4,92.5,5.8,81.1,3.6,79.2c-2.1-1.9-2.1-23.2,0-27.7c2.1-4.4,25.7-2,61.6-1.1c47.2,1.1,41.2-8.1,63.4-4.6"/>
		</g>
		<g>
			<path fill="#DF731B" d="M204.2,108.1c-2.9,10.9-6.3,93.7-4.6,96c1.7,2.3,23,4,27.6,2.3c4.6-1.7,5.2-6.9,12.1-40.2
				c9.6-46.2,12.3-82.8,10.5-105.2c-1.3-16.7-14.3-37.2-24.7-39"/>
			<path fill="#332F20" d="M227.2,206.4c-4.6,1.7-25.9,0-27.6-2.3c-0.8-1.1-0.5-21.2,0.5-42.8c11-0.4,25.2,0.7,39.5,3.4
				c-0.1,0.5-0.2,1-0.3,1.5C232.4,199.5,231.8,204.7,227.2,206.4z"/>
			<path fill="none" stroke="#000000" stroke-width="4" stroke-linecap="round" stroke-linejoin="round" d="M204.2,108.1
				c-2.9,10.9-6.3,93.7-4.6,96c1.7,2.3,23,4,27.6,2.3c4.6-1.7,5.2-6.9,12.1-40.2c9.6-46.2,12.3-82.8,10.5-105.2
				c-1.3-16.7-14.3-37.2-24.7-39"/>
		</g>
	</g>
	<g>
		<path fill="none" stroke="#20BF00" stroke-width="3" stroke-linecap="round" stroke-linejoin="round" d="M181.1,34.9
			c0,5.3-4.3,9.7-9.7,9.7c-5.3,0-9.7-4.3-9.7-9.7c0-5.3,4.3-9.7,9.7-9.7C176.8,25.3,181.1,29.6,181.1,34.9z"/>
		
			<line fill="none" stroke="#20BF00" stroke-width="2.7066" stroke-linecap="round" stroke-linejoin="round" x1="154.6" y1="34.9" x2="188.4" y2="34.9"/>
		
			<line fill="none" stroke="#20BF00" stroke-width="2.7212" stroke-linecap="round" stroke-linejoin="round" x1="171.5" y1="19.2" x2="171.5" y2="50.7"/>
	</g>
</g>
</svg>
