<?xml version="1.0" encoding="utf-8"?>
<!-- Generator: Adobe Illustrator 22.0.1, SVG Export Plug-In . SVG Version: 6.00 Build 0)  -->
<svg version="1.2" baseProfile="tiny" id="レイヤー_1"
	 xmlns="http://www.w3.org/2000/svg" xmlns:xlink="http://www.w3.org/1999/xlink" x="0px" y="0px" width="295.2px" height="209.1px"
	 viewBox="0 0 295.2 209.1" xml:space="preserve">
<g id="体_正面_xFF08_ぺたんこ座り_xFF09_">
	<g>
		<path fill="#DF731B" d="M69.1,59.9c0,10.1,7.4,28.4,2.4,45.3c-4,13.2,7.5,23.1,7.5,28.3c0,27.4,31.2,48.5,68.5,48.5
			c37.2,0,68.9-19.6,68.9-50.4c0-5.2,11.8-13.3,7.5-26.4c-5.4-16.5,2.4-35.2,2.4-45.3C226.1,28,190.9,2,147.6,2S69.1,28,69.1,59.9z"
			/>
		<path fill="#FFFFCC" d="M194.4,60.5c15.9-12.2-1.6-38.6-36.7-40.9c-4.1-0.3-16.1-0.3-20.2,0c-35.1,2.3-52.7,28.6-36.7,40.9
			c14.2,10.9,15,16.9,11.8,21.5c-9.9,13.5-16.1,32.6-16.1,53.8c0,13.4,2.4,25.1,6.7,34.9c12,7.1,27.5,11.4,44.1,11.4
			c16.7,0,32.2-3.9,44.3-11.1c4.4-9.9,6.9-21.8,6.9-35.3c0-21.2-6.2-40.3-16.1-53.8C179.2,76.8,180.2,71.4,194.4,60.5z"/>
		<path fill="none" stroke="#000000" stroke-width="4" stroke-linecap="round" stroke-linejoin="round" d="M69.9,59.9
			c0,10.1,6.6,28.4,1.6,45.3c-4,13.2,7.5,23.1,7.5,28.3c0,27.4,31.2,48.5,68.5,48.5c37.2,0,68.9-19.6,68.9-50.4
			c0-5.2,11.8-13.3,7.5-26.4c-5.4-16.5,1.6-35.2,1.6-45.3C225.3,28,190.9,2,147.6,2S69.9,28,69.9,59.9z"/>
	</g>
	<g>
		<g>
			<path fill="#DF731B" stroke="#000000" stroke-width="4" stroke-linecap="round" stroke-linejoin="round" d="M84.7,69.2
				C54.8,80.1,41.9,104.8,41,131.3c-1.2,31.6,17.2,41.4,14.9,44.8c-2.3,3.4-10.7,8.6,0.8,18.2c11.4,9.6,36.1-5.2,44.7-11.5
				s-5.3-26.8-5.3-31.4"/>
			<g>
				<path fill="#DF731B" d="M71,157.7c-24.5-29.5-41.6-47.5-50.3-50c-8.7-2.5-18.9,6.8-18.6,12.7s46.6,69,54.7,73.9"/>
				<path fill="#332F20" d="M57.5,141.7c-17.4-20-29.8-32.1-36.8-34.1c-8.7-2.5-18.9,6.8-18.6,12.7c0.2,3.2,14.2,23.6,28.1,42.2
					C42.1,158.7,52.9,151.8,57.5,141.7z"/>
				<path fill="none" stroke="#000000" stroke-width="4" stroke-linecap="round" stroke-linejoin="round" d="M71,157.7
					c-24.5-29.5-41.6-47.5-50.3-50c-8.7-2.5-18.9,6.8-18.6,12.7s46.6,69,54.7,73.9"/>
			</g>
		</g>
		<g>
			<path fill="#DF731B" stroke="#000000" stroke-width="4" stroke-linecap="round" stroke-linejoin="round" d="M210.6,69.2
				c29.9,10.9,42.7,35.6,43.7,62.1c1.1,31.6-17.2,41.4-14.9,44.8c2.3,3.4,10.7,8.6-0.8,18.2c-11.4,9.6-36.1-5.2-44.7-11.5
				c-8.6-6.3,5.3-26.8,5.3-31.4"/>
			<g>
				<path fill="#DF731B" d="M224.2,157.7c24.5-29.5,41.6-47.5,50.3-50c8.7-2.5,18.9,6.8,18.6,12.7s-46.6,69-54.7,73.9"/>
				<path fill="#332F20" d="M237.8,141.7c17.4-20,29.8-32.1,36.8-34.1c8.7-2.5,18.9,6.8,18.6,12.7c-0.2,3.2-14.2,23.6-28.1,42.2
					C253.1,158.7,242.4,151.8,237.8,141.7z"/>
				<path fill="none" stroke="#000000" stroke-width="4" stroke-linecap="round" stroke-linejoin="round" d="M224.2,157.7
					c24.5-29.5,41.6-47.5,50.3-50c8.7-2.5,18.9,6.8,18.6,12.7s-46.6,69-54.7,73.9"/>
			</g>
		</g>
	</g>
	<g>
		<g>
			<path fill="#DF731B" d="M114.8,108.1c2.9,10.9,6.3,93.7,4.6,96c-1.7,2.3-23,4-27.6,2.3c-4.6-1.7-5.2-6.9-12.1-40.2
				C70.2,119.9,67.5,83.4,69.2,61c1.3-16.7,14.3-37.2,24.7-39"/>
			<path fill="#332F20" d="M91.8,206.4c4.6,1.7,25.9,0,27.6-2.3c0.8-1.1,0.5-21.2-0.5-42.8c-11-0.4-25.2,0.7-39.5,3.4
				c0.1,0.5,0.2,1,0.3,1.5C86.7,199.5,87.2,204.7,91.8,206.4z"/>
			<path fill="none" stroke="#000000" stroke-width="4" stroke-linecap="round" stroke-linejoin="round" d="M114.8,108.1
				c2.9,10.9,6.3,93.7,4.6,96c-1.7,2.3-23,4-27.6,2.3c-4.6-1.7-5.2-6.9-12.1-40.2C70.2,119.9,67.5,83.4,69.2,61
				c1.3-16.7,14.3-37.2,24.7-39"/>
		</g>
		<g>
			<path fill="#DF731B" d="M180.4,108.1c-2.9,10.9-6.3,93.7-4.6,96s23,4,27.6,2.3c4.6-1.7,5.2-6.9,12.1-40.2
				C225,119.9,227.7,83.4,226,61c-1.3-16.7-14.3-37.2-24.7-39"/>
			<path fill="#332F20" d="M203.4,206.4c-4.6,1.7-25.9,0-27.6-2.3c-0.8-1.1-0.5-21.2,0.5-42.8c11-0.4,25.2,0.7,39.5,3.4
				c-0.1,0.5-0.2,1-0.3,1.5C208.5,199.5,208,204.7,203.4,206.4z"/>
			<path fill="none" stroke="#000000" stroke-width="4" stroke-linecap="round" stroke-linejoin="round" d="M180.4,108.1
				c-2.9,10.9-6.3,93.7-4.6,96s23,4,27.6,2.3c4.6-1.7,5.2-6.9,12.1-40.2C225,119.9,227.7,83.4,226,61c-1.3-16.7-14.3-37.2-24.7-39"
				/>
		</g>
	</g>
	<g>
		<path fill="none" stroke="#20BF00" stroke-width="3" stroke-linecap="round" stroke-linejoin="round" d="M157.3,34.9
			c0,5.3-4.3,9.7-9.7,9.7c-5.3,0-9.7-4.3-9.7-9.7c0-5.3,4.3-9.7,9.7-9.7C152.9,25.3,157.3,29.6,157.3,34.9z"/>
		
			<line fill="none" stroke="#20BF00" stroke-width="2.7066" stroke-linecap="round" stroke-linejoin="round" x1="130.7" y1="34.9" x2="164.5" y2="34.9"/>
		
			<line fill="none" stroke="#20BF00" stroke-width="2.7212" stroke-linecap="round" stroke-linejoin="round" x1="147.6" y1="19.2" x2="147.6" y2="50.7"/>
	</g>
</g>
</svg>
