<?xml version="1.0" encoding="utf-8"?>
<!-- Generator: Adobe Illustrator 22.0.1, SVG Export Plug-In . SVG Version: 6.00 Build 0)  -->
<svg version="1.2" baseProfile="tiny" id="レイヤー_1"
	 xmlns="http://www.w3.org/2000/svg" xmlns:xlink="http://www.w3.org/1999/xlink" x="0px" y="0px" width="227.1px" height="220.8px"
	 viewBox="0 0 227.1 220.8" xml:space="preserve">
<g id="体_正面_xFF08_通常_xFF09_">
	<g>
		<path fill="#DF731B" d="M137.2,43c5.4,67-16.6,88.7-16.6,88.7s4.7,5,2.6,25.4c-2.1,20.4-4.9,53.5-9.7,57.6
			c-4.9,4.1-25.5,5.8-30.2,0.9s3.2-54.1,3.1-56.7c0-2.6-20.6-3.4-17.8-26.7c2-16.4,0.4-28.6,0.4-28.6"/>
		<path fill="#332F20" d="M83.3,215.5c4.7,5,25.3,3.2,30.2-0.9c3.8-3.2,6.4-30.7,8.3-52.2c-11.1,5.4-22.4,7.3-37.3,5.1
			C82.5,186.1,80.3,212.2,83.3,215.5z"/>
		<path fill="none" stroke="#000000" stroke-width="4" stroke-linecap="round" stroke-linejoin="round" d="M137.2,43
			c5.4,67-16.6,88.7-16.6,88.7s4.7,5,2.6,25.4c-2.1,20.4-4.9,53.5-9.7,57.6c-4.9,4.1-25.5,5.8-30.2,0.9s3.2-54.1,3.1-56.7
			c0-2.6-20.6-3.4-17.8-26.7c2-16.4,0.4-28.6,0.4-28.6"/>
	</g>
	<g>
		<path fill="#DF731B" d="M209.4,52.6C206.3-7.7,131.7-1.8,102.8,8.8C32.6,34.5-4.8,58.9,3,89.6c-1.3,22.4-0.4,45,8.6,88.3
			c6.9,33.3,7.5,38.5,12.1,40.2c4.6,1.7,25.9,0,27.6-2.3c1.3-1.8-1.5-43.1-2.9-76c24.6,11.9,56.4,14.5,93.8,10.5
			C185.9,145.6,212.6,112.9,209.4,52.6z"/>
		<path fill="#332F20" d="M11.2,176.1c0.1,0.6,0.2,1.2,0.4,1.8c6.9,33.3,7.5,38.5,12.1,40.2c4.6,1.7,25.9,0,27.6-2.3
			c0.8-1.1,0.1-19.9-0.9-41.9C38.1,173.3,27.7,173.9,11.2,176.1z"/>
		<path fill="#FFFFCC" d="M142.2,150.3c17.4-1.9,32.1-8.2,43.3-18.9c-3.9-7.6-10.3-9.5-28-9c-24.1,0.6-47,5.1-55.2-8.2
			c-8.3-13.3-65.4-25.2-64.6-3.6c0.4,10.1,2.3,21.4,10.8,30.6c0-0.4,0-0.9-0.1-1.3C73,151.7,104.7,154.3,142.2,150.3z"/>
		<path fill="none" stroke="#000000" stroke-width="4" stroke-linecap="round" stroke-linejoin="round" d="M209.4,52.6
			C206.3-7.7,131.7-1.8,102.8,8.8C32.6,34.5-4.8,58.9,3,89.6c-1.3,22.4-0.4,45,8.6,88.3c6.9,33.3,7.5,38.5,12.1,40.2
			c4.6,1.7,25.9,0,27.6-2.3c1.3-1.8-1.5-43.1-2.9-76c24.6,11.9,56.4,14.5,93.8,10.5C185.9,145.6,212.6,112.9,209.4,52.6z"/>
	</g>
	<path fill="none" stroke="#000000" stroke-width="4" stroke-linecap="round" stroke-linejoin="round" d="M33.8,122.6
		c1.9,8.3,7.5,13.6,14.5,17.3"/>
	<g>
		<path fill="#DF731B" d="M205.2,32.4c32.4,55.2,5.7,100.9,5.7,100.9s4.9-3.4,7.5,16.9c2.5,20.3,9.5,52.9,5.7,58
			c-3.8,5.1-23.5,11.4-29.2,7.6c-5.7-3.8-10.6-54.6-11.3-57.2c-0.6-2.5-15.9,4.4-20.3-11.4s8.2-45.7,8.2-45.7"/>
		<path fill="#332F20" d="M194.8,215.9c5.7,3.8,25.4-2.5,29.2-7.6c3.1-4.2-2.2-32.9-5.2-54.5c-6.9,7.3-17,12.3-33,15.4
			C187.9,188,191.2,213.5,194.8,215.9z"/>
		<path fill="none" stroke="#000000" stroke-width="4" stroke-linecap="round" stroke-linejoin="round" d="M205.2,32.4
			c32.4,55.2,5.7,100.9,5.7,100.9s4.9-3.4,7.5,16.9c2.5,20.3,9.5,52.9,5.7,58c-3.8,5.1-23.5,11.4-29.2,7.6
			c-5.7-3.8-10.6-54.6-11.3-57.2c-0.6-2.5-15.9,4.4-20.3-11.4s8.2-45.7,8.2-45.7"/>
	</g>
	<g>
		<path fill="#DF731B" d="M110.9,119.6c0.6,26-6,93.7-4.3,96c1.7,2.3,25.1,4.3,29.7,2.6c4.6-1.7,5.2-6.9,12.1-40.2
			c9.6-46.2,19-52.8,17.3-75.2"/>
		<path fill="#332F20" d="M106.6,215.6c1.7,2.3,25.1,4.3,29.7,2.6c4.6-1.7,5.2-6.9,12.1-40.2c-12.3-3.2-25.2-5-40.1-4.1
			C106.9,195.8,105.8,214.5,106.6,215.6z"/>
		<path fill="none" stroke="#000000" stroke-width="4" stroke-linecap="round" stroke-linejoin="round" d="M110.9,119.6
			c0.6,26-6,93.7-4.3,96c1.7,2.3,25.1,4.3,29.7,2.6c4.6-1.7,5.2-6.9,12.1-40.2c9.6-46.2,19-52.8,17.3-75.2"/>
	</g>
	<g>
		<path fill="none" stroke="#20BF00" stroke-width="3" stroke-linecap="round" stroke-linejoin="round" d="M79.4,71.8
			c0,5.3-4.3,9.7-9.7,9.7c-5.3,0-9.7-4.3-9.7-9.7c0-5.3,4.3-9.7,9.7-9.7C75.1,62.2,79.4,66.5,79.4,71.8z"/>
		
			<line fill="none" stroke="#20BF00" stroke-width="2.7066" stroke-linecap="round" stroke-linejoin="round" x1="52.9" y1="71.8" x2="86.7" y2="71.8"/>
		
			<line fill="none" stroke="#20BF00" stroke-width="2.7212" stroke-linecap="round" stroke-linejoin="round" x1="69.8" y1="56.1" x2="69.8" y2="87.5"/>
	</g>
</g>
</svg>
