<?xml version="1.0" encoding="utf-8"?>
<!-- Generator: Adobe Illustrator 22.0.1, SVG Export Plug-In . SVG Version: 6.00 Build 0)  -->
<svg version="1.2" baseProfile="tiny" id="レイヤー_1"
	 xmlns="http://www.w3.org/2000/svg" xmlns:xlink="http://www.w3.org/1999/xlink" x="0px" y="0px" width="86px" height="66.9px"
	 viewBox="0 0 86 66.9" xml:space="preserve">
<g id="体_正面_xFF08_お座り_x2F_右手挙げ_xFF09__xFF1A_右手">
	<path fill="#DF731B" d="M6.1,64.9C-17.2,18.4,66.8,1.1,69.5,2c6.3,2.1,17.4,20.6,13.7,29.6c-1.9,4.5-49.7,22.4-55,22.2"/>
	<path fill="#332F20" d="M83.2,31.6c3.7-9-7.4-27.5-13.7-29.6C68.3,1.6,51,4.8,34.2,12.6C43.5,25.5,49,35.2,51.6,46.6
		C66.2,41.1,82.2,34.2,83.2,31.6z"/>
	<path fill="none" stroke="#000000" stroke-width="4" stroke-linecap="round" stroke-linejoin="round" d="M6.1,64.9
		C-17.2,18.4,66.8,1.1,69.5,2c6.3,2.1,17.4,20.6,13.7,29.6c-1.9,4.5-49.7,22.4-55,22.2"/>
</g>
</svg>
