<?xml version="1.0" encoding="utf-8"?>
<!-- Generator: Adobe Illustrator 22.0.1, SVG Export Plug-In . SVG Version: 6.00 Build 0)  -->
<svg version="1.2" baseProfile="tiny" id="レイヤー_1"
	 xmlns="http://www.w3.org/2000/svg" xmlns:xlink="http://www.w3.org/1999/xlink" x="0px" y="0px" width="230.4px" height="205.2px"
	 viewBox="0 0 230.4 205.2" xml:space="preserve">
<g id="頭_後">
	<g>
		<g>
			<path fill="none" stroke="#000000" stroke-width="3" stroke-linecap="round" stroke-linejoin="round" d="M64.5,157.3
				c-36.2-2.2-50.3,9.8-50.3,9.8"/>
			<path fill="none" stroke="#000000" stroke-width="3" stroke-linecap="round" stroke-linejoin="round" d="M66.7,167.1
				C35.4,171.6,27,182.7,27,182.7"/>
			<path fill="none" stroke="#000000" stroke-width="3" stroke-linecap="round" stroke-linejoin="round" d="M62.3,146.6
				C25.2,136.8,4,145.3,4,145.3"/>
		</g>
		<g>
			<path fill="none" stroke="#000000" stroke-width="3" stroke-linecap="round" stroke-linejoin="round" d="M165.8,157.3
				c36.2-2.2,50.3,9.8,50.3,9.8"/>
			<path fill="none" stroke="#000000" stroke-width="3" stroke-linecap="round" stroke-linejoin="round" d="M163.6,167.1
				c31.4,4.5,39.7,15.6,39.7,15.6"/>
			<path fill="none" stroke="#000000" stroke-width="3" stroke-linecap="round" stroke-linejoin="round" d="M168,146.6
				c37.1-9.8,58.3-1.3,58.3-1.3"/>
		</g>
	</g>
	<g>
		<path fill="#DF731B" d="M228.4,115.1c0,0-5.4-2.4-7.6-3.3c1.8-1.9,6.1-6.2,6.1-6.2l-0.6-1c-0.1-0.1-5.4-8.7-13.5-25.9
			c1.4-6.7,4.8-15.5,6.1-23.1c2.7-16,4.5-50.1,2.7-52.8c-1.8-2.6-18.2,2.5-27.6,4.5c-7.2,1.5-20.2,4.1-29.7,9.1
			C149.8,8.2,133,3.7,115.2,3.7c-19.5,0-36.3,4-50.4,12c-9.4-4.6-21.5-7-28.4-8.4C27,5.3,10.6,0.1,8.8,2.7c-1.8,2.6,0,36.8,2.7,52.8
			c1.3,7.5,4.7,16.2,6.1,22.9c-8.2,17.3-13.4,26-13.5,26.1l-0.6,1c0,0,4.2,4.3,6.1,6.2c-2.1,0.9-7.6,3.3-7.6,3.3s5.5,5,7.3,6.7
			c-1.9,1.1-7.1,4.2-7.1,4.2l2,1.3c0.2,0.1,15.3,10.3,24.7,30.6c5,10.6,25.9,45.3,86.3,45.3c59.5,0,80.4-32.2,86.6-46.1
			c8-17.7,24.2-29.7,24.4-29.8l1.8-1.3c0,0-5.1-3-7-4.1C222.9,120.1,228.4,115.1,228.4,115.1z"/>
		<path fill="#FFFFCC" d="M29,157.9c5,10.6,25.9,45.3,86.3,45.3c59.5,0,80.4-32.2,86.6-46.1c5.7-12.7,15.6-22.4,20.9-27
			c-14.9,4.8-32.6,23.4-50.8,35.3c-24.9,16.3-25,17.1-56.9,17.1c0.2,0,0.4,0,0.5,0h-1.1c0.2,0,0.4,0,0.5,0c-30.5,0-32-0.8-56.9-17.1
			C40.3,153.8,22.7,135.3,8,130.3C13.1,134.7,22.4,143.9,29,157.9z"/>
		<path fill="none" stroke="#000000" stroke-width="4" stroke-linecap="round" stroke-linejoin="round" d="M228.4,115.1
			c0,0-5.4-2.4-7.6-3.3c1.8-1.9,6.1-6.2,6.1-6.2l-0.6-1c-0.1-0.1-5.4-8.7-13.5-25.9c1.4-6.7,4.8-15.5,6.1-23.1
			c2.7-16,4.5-50.1,2.7-52.8c-1.8-2.6-18.2,2.5-27.6,4.5c-7.2,1.5-20.2,4.1-29.7,9.1C149.8,8.2,133,3.7,115.2,3.7
			c-19.5,0-36.3,4-50.4,12c-9.4-4.6-21.5-7-28.4-8.4C27,5.3,10.6,0.1,8.8,2.7c-1.8,2.6,0,36.8,2.7,52.8c1.3,7.5,4.7,16.2,6.1,22.9
			c-8.2,17.3-13.4,26-13.5,26.1l-0.6,1c0,0,4.2,4.3,6.1,6.2c-2.1,0.9-7.6,3.3-7.6,3.3s5.5,5,7.3,6.7c-1.9,1.1-7.1,4.2-7.1,4.2l2,1.3
			c0.2,0.1,15.3,10.3,24.7,30.6c5,10.6,25.9,45.3,86.3,45.3c59.5,0,80.4-32.2,86.6-46.1c8-17.7,24.2-29.7,24.4-29.8l1.8-1.3
			c0,0-5.1-3-7-4.1C222.9,120.1,228.4,115.1,228.4,115.1z"/>
	</g>
	<g>
		<path fill="none" stroke="#20BF00" stroke-width="3" stroke-linecap="round" stroke-linejoin="round" d="M124.8,157.1
			c0,5.3-4.3,9.7-9.7,9.7c-5.3,0-9.7-4.3-9.7-9.7c0-5.3,4.3-9.7,9.7-9.7C120.5,147.5,124.8,151.8,124.8,157.1z"/>
		
			<line fill="none" stroke="#20BF00" stroke-width="2.7066" stroke-linecap="round" stroke-linejoin="round" x1="98.3" y1="157.1" x2="132.1" y2="157.1"/>
		
			<line fill="none" stroke="#20BF00" stroke-width="2.7212" stroke-linecap="round" stroke-linejoin="round" x1="115.2" y1="141.4" x2="115.2" y2="172.8"/>
	</g>
</g>
</svg>
