<?xml version="1.0" encoding="utf-8"?>
<!-- Generator: Adobe Illustrator 22.0.1, SVG Export Plug-In . SVG Version: 6.00 Build 0)  -->
<svg version="1.2" baseProfile="tiny" id="レイヤー_1"
	 xmlns="http://www.w3.org/2000/svg" xmlns:xlink="http://www.w3.org/1999/xlink" x="0px" y="0px" width="233.9px" height="186.7px"
	 viewBox="0 0 233.9 186.7" xml:space="preserve">
<g id="頭_正面_xFF08_上向き_xFF09_">
	<g>
		<path fill="none" stroke="#20BF00" stroke-width="3" stroke-linecap="round" stroke-linejoin="round" d="M126.6,152.3
			c0,5.3-4.3,9.7-9.7,9.7c-5.3,0-9.7-4.3-9.7-9.7s4.3-9.7,9.7-9.7C122.3,142.6,126.6,146.9,126.6,152.3z"/>
		
			<line fill="none" stroke="#20BF00" stroke-width="2.7066" stroke-linecap="round" stroke-linejoin="round" x1="100" y1="152.3" x2="133.8" y2="152.3"/>
		
			<line fill="none" stroke="#20BF00" stroke-width="2.7212" stroke-linecap="round" stroke-linejoin="round" x1="116.9" y1="136.6" x2="116.9" y2="159.9"/>
	</g>
	<g>
		<g>
			<path fill="#DF731B" stroke="#000000" stroke-width="4" stroke-linecap="round" stroke-linejoin="round" d="M159.2,24
				c8.9-8.3,27.3-8,36.5-9.9c9.4-2,25.8-4.7,27.6-2.1c1.8,2.6,0,30.5-2.7,46.5c-1.5,8.9-6,19.3-6.6,26.3"/>
			<path fill="#DF731B" stroke="#000000" stroke-width="4" stroke-linecap="round" stroke-linejoin="round" d="M74.7,24
				c-8.9-8.3-27.3-8-36.5-9.9c-9.4-2-25.8-4.7-27.6-2.1c-1.8,2.6,0,30.5,2.7,46.5c1.5,8.9,6,19.3,6.6,26.3"/>
		</g>
		<g>
			<path fill="#FFFFCC" d="M60.1,25.3c-4.2-4.6-18.8-3.7-25-5.9c-5.3-1.9-15.4-2-16.5-0.8c-1.1,1.2,1.2,10.5,2.9,17.6
				c0.9,4,5.4,10.2,5.7,13.3c0.3,2.3,3.4,3.6,4.7,2c1.3-1.6,13.2-13.8,14.9-15.7C51.1,31.2,61.9,27.2,60.1,25.3z"/>
			<path fill="#FFFFCC" d="M173.5,25.3c4.2-4.6,18.8-3.7,25-5.9c5.3-1.9,15.4-2,16.5-0.8c1.1,1.2-1.2,10.5-2.9,17.6
				c-0.9,4-5.4,10.2-5.7,13.3c-0.3,2.3-3.4,3.6-4.7,2c-1.3-1.6-13.2-13.8-14.9-15.7C182.5,31.2,171.7,27.2,173.5,25.3z"/>
		</g>
		<g>
			<path fill="#DF731B" d="M165.3,184.7c22.1-6.3,29.9-13.9,36.6-21.8c9.4-11.3,23.7-13.1,23.9-13.2l1.8-1.5c0,0-5-5.8-6.9-7.1
				c2.1-0.4,9.4-2.2,9.4-2.2s-7.5-9.8-9.6-10.8c1.9-1.3,6.5-1.3,11.4-2.5c-13.7-21.8-24.4-63.1-24.4-63.1C197.2,27.6,157.2,2,117,2
				C73.6,2,35.9,27.3,26.4,62.5l0,0c-12.2,27.6-12.9,40.4-24.4,63c3.9,0.7,9.6,1.2,11.4,2.5c-2.1,1-9.6,10.8-9.6,10.8
				s7.4,1.3,9.4,2.2c-1.9,1.3-7,7.2-7,7.2l1.9,1.5c0.1,0.1,14.5,2.3,24.2,14c5.1,6.2,12.9,14,35.5,20.7"/>
			<path fill="#FFFFCC" d="M14.9,128c0,0,0,0.1,0,0.1c0,0.6-0.4,1.2-0.9,1.4c-0.9,0.5-4.2,4.3-7.4,8.2c2.4,0.5,5.7,1.2,7,1.8
				c0.5,0.2,0.9,0.8,0.9,1.4c0,0,0,0.1,0,0.1c0,0.6-0.3,1.1-0.7,1.4c-1,0.7-3.5,3.3-5.4,5.5c0.2,0.1,0.5,0.3,0.5,0.3
				c0.1,0.1,14.7,2.4,24.5,14.3l0.4,0.5c5.6,6.7,11.4,16.2,40.1,22.3l85.6,0.5c28.3-5.7,33.6-15,40.9-23.7l0.3-0.4
				c8.4-10.1,20.5-10.7,24-13.4l0.1-0.1c0,0,0.3-0.2,0.4-0.3c-1.9-2.1-4.4-4.8-5.4-5.5c-0.4-0.3-0.7-0.8-0.7-1.4c0-0.1,0-0.2,0-0.3
				c0.1-0.7,0.6-1.2,1.2-1.4c0,0,4.2-1,6.9-1.6c-3.1-3.9-6.5-7.8-7.4-8.3c-0.5-0.3-0.8-0.8-0.9-1.4c0,0,0-0.1,0-0.1
				c0-0.6,0.3-1.1,0.7-1.4c1-0.7,2.3-1,4-1.3c-3.9-4.8-7.7-9.2-11.1-13.2c-16.7-19.7-34-34.3-37.5-45.3
				c-3.5-10.8-24.1-27.8-58.2-28.2l0,0c-0.2,0-0.4,0-0.6,0c-0.2,0-0.4,0-0.6,0l0,0c-34,0.4-54.7,17.4-58.2,28.2
				C54.1,77.6,37.6,93,20.2,112c-3.8,4.1-7.6,8.4-11.4,12.9c2.3,0.4,4.3,0.9,5.4,1.7C14.6,126.9,14.9,127.4,14.9,128z"/>
			<path fill="none" stroke="#000000" stroke-width="4" stroke-linecap="round" stroke-linejoin="round" d="M165.3,184.7
				c22.1-6.3,29.9-13.9,36.6-21.8c9.4-11.3,23.7-13.1,23.9-13.2l1.8-1.5c0,0-5-5.8-6.9-7.1c2.1-0.4,9.4-2.2,9.4-2.2
				s-7.5-9.8-9.6-10.8c1.9-1.3,6.5-1.3,11.4-2.5c-13.7-21.8-24.4-63.1-24.4-63.1C197.2,27.6,157.2,2,117,2
				C73.6,2,35.9,27.3,26.4,62.5l0,0c-12.2,27.6-12.9,40.4-24.4,63c3.9,0.7,9.6,1.2,11.4,2.5c-2.1,1-9.6,10.8-9.6,10.8
				s7.4,1.3,9.4,2.2c-1.9,1.3-7,7.2-7,7.2l1.9,1.5c0.1,0.1,14.5,2.3,24.2,14c5.1,6.2,12.9,14,35.5,20.7"/>
		</g>
	</g>
	<g>
		<g>
			<path fill="none" stroke="#000000" stroke-width="3" stroke-linecap="round" stroke-linejoin="round" d="M64.5,77.3
				c-36.2,5.2-53.9,35.9-53.9,35.9"/>
			<path fill="none" stroke="#000000" stroke-width="3" stroke-linecap="round" stroke-linejoin="round" d="M66.8,84.7
				c-28.2,12.2-45.3,42.5-45.3,42.5"/>
			<path fill="none" stroke="#000000" stroke-width="3" stroke-linecap="round" stroke-linejoin="round" d="M64.1,69.6
				C25,70.6,1.6,94.6,1.6,94.6"/>
		</g>
		<g>
			<path fill="none" stroke="#000000" stroke-width="3" stroke-linecap="round" stroke-linejoin="round" d="M169.4,77.3
				c36.2,5.2,53.9,35.9,53.9,35.9"/>
			<path fill="none" stroke="#000000" stroke-width="3" stroke-linecap="round" stroke-linejoin="round" d="M167.1,84.7
				c28.2,12.2,45.3,42.5,45.3,42.5"/>
			<path fill="none" stroke="#000000" stroke-width="3" stroke-linecap="round" stroke-linejoin="round" d="M169.8,69.6
				c39,1.1,62.5,25.1,62.5,25.1"/>
		</g>
	</g>
	<g>
		<path fill="none" stroke="#000000" stroke-width="4" stroke-linecap="round" stroke-linejoin="round" d="M174.2,64.1
			c-9.2-15.3-34.5-25.6-57.3-25.6S65.5,48.8,59.7,64.1"/>
		<g>
			<path fill="none" stroke="#000000" stroke-width="4" stroke-linecap="round" stroke-linejoin="round" d="M76.9,76.5
				c3.9,1.6,14.1,2.3,21.5,0.4c7.7-2,16.4-8.2,18.6-19.5"/>
			<path fill="none" stroke="#000000" stroke-width="4" stroke-linecap="round" stroke-linejoin="round" d="M157,76.5
				c-3.9,1.6-14.1,2.3-21.5,0.4c-7.7-2-16.4-8.2-18.6-19.5"/>
		</g>
		<path fill="#332F20" stroke="#000000" stroke-width="4" stroke-linecap="round" stroke-linejoin="round" d="M116.9,36.3
			c13.1,0,17.5,4.5,11.3,12.6c-6.2,8.1-16.4,8.1-22.6,0C99.4,40.9,103.9,36.3,116.9,36.3z"/>
	</g>
	<g>
		<g>
			<path d="M94.2,35.6c0,4.7-5.6,9-12.5,9.6c-6.9,0.6-12.5-2.7-12.5-7.4c0-4.7,5.6-9,12.5-9.6C88.6,27.5,94.2,30.8,94.2,35.6z"/>
			<path fill="#FFFFFF" d="M80.3,39.9c0,1.8-2,3.4-4.5,3.7c-2.5,0.2-4.5-1.1-4.5-2.9c0-1.8,2-3.5,4.5-3.7
				C78.3,36.8,80.3,38.1,80.3,39.9z"/>
		</g>
		<g>
			<path d="M164.7,37.7c0,4.7-5.6,8.1-12.5,7.4c-6.9-0.6-12.5-4.9-12.5-9.6c0-4.7,5.6-8.1,12.5-7.4C159.1,28.7,164.7,33,164.7,37.7z
				"/>
			<path fill="#FFFFFF" d="M150.9,39.6c0,1.8-2,3.1-4.5,2.9c-2.5-0.2-4.5-1.9-4.5-3.7c0-1.8,2-3.1,4.5-2.9
				C148.8,36.2,150.9,37.8,150.9,39.6z"/>
		</g>
	</g>
</g>
</svg>
