<?xml version="1.0" encoding="utf-8"?>
<!-- Generator: Adobe Illustrator 22.0.1, SVG Export Plug-In . SVG Version: 6.00 Build 0)  -->
<svg version="1.2" baseProfile="tiny" id="レイヤー_1"
	 xmlns="http://www.w3.org/2000/svg" xmlns:xlink="http://www.w3.org/1999/xlink" x="0px" y="0px" width="230.4px" height="205.2px"
	 viewBox="0 0 230.4 205.2" xml:space="preserve">
<g id="頭_正面_xFF08_笑顔_xFF09_">
	<g>
		<path fill="none" stroke="#20BF00" stroke-width="3" stroke-linecap="round" stroke-linejoin="round" d="M124.8,157.1
			c0,5.3-4.3,9.7-9.7,9.7c-5.3,0-9.7-4.3-9.7-9.7s4.3-9.7,9.7-9.7C120.5,147.5,124.8,151.8,124.8,157.1z"/>
		
			<line fill="none" stroke="#20BF00" stroke-width="2.7066" stroke-linecap="round" stroke-linejoin="round" x1="98.3" y1="157.1" x2="132.1" y2="157.1"/>
		
			<line fill="none" stroke="#20BF00" stroke-width="2.7212" stroke-linecap="round" stroke-linejoin="round" x1="115.2" y1="141.4" x2="115.2" y2="172.8"/>
	</g>
	<g>
		<g>
			<path fill="#DF731B" d="M24.6,63.1L24.6,63.1C12.5,90.7,4.2,104.4,4.1,104.6l-0.6,1c0,0,4.2,4.3,6.1,6.2
				c-2.1,0.9-7.6,3.3-7.6,3.3s5.5,5,7.3,6.7c-1.9,1.1-7.1,4.2-7.1,4.2l2,1.3c0.2,0.1,15.3,10.3,24.7,30.6
				c5,10.6,25.9,45.3,86.3,45.3l0,0c59.5,0,80.4-32.2,86.6-46.1c8-17.7,24.2-29.7,24.4-29.8l1.8-1.3c0,0-5.1-3-7-4.1
				c1.9-1.7,7.3-6.7,7.3-6.7s-5.4-2.4-7.6-3.3c1.8-1.9,6.1-6.2,6.1-6.2l-0.6-1c-0.1-0.1-8.7-13.8-20.5-41.6
				c-15.6-36.6-50.3-59.3-90.5-59.3C71.8,3.7,42.2,23.1,24.6,63.1z"/>
			<path fill="#FFFFCC" d="M29,157.9c5,10.6,25.9,45.3,86.3,45.3c59.5,0,80.4-32.2,86.6-46.1c5.9-13.2,16.4-23.2,21.5-27.5
				c-15,1.8-33,1.8-51.4,13.8c-24.9,16.3-25,24.9-56.9,24.9c0.2,0,0.4,0,0.5,0h-1.1c0.2,0,0.4,0,0.5,0c-30.5,0-32-8.6-56.9-24.9
				c-18.2-11.9-36.1-12-50.9-13.8C12.2,133.8,22.1,143.2,29,157.9z"/>
			<path fill="none" stroke="#000000" stroke-width="4" stroke-linecap="round" stroke-linejoin="round" d="M24.6,63.1L24.6,63.1
				C12.5,90.7,4.2,104.4,4.1,104.6l-0.6,1c0,0,4.2,4.3,6.1,6.2c-2.1,0.9-7.6,3.3-7.6,3.3s5.5,5,7.3,6.7c-1.9,1.1-7.1,4.2-7.1,4.2
				l2,1.3c0.2,0.1,15.3,10.3,24.7,30.6c5,10.6,25.9,45.3,86.3,45.3l0,0c59.5,0,80.4-32.2,86.6-46.1c8-17.7,24.2-29.7,24.4-29.8
				l1.8-1.3c0,0-5.1-3-7-4.1c1.9-1.7,7.3-6.7,7.3-6.7s-5.4-2.4-7.6-3.3c1.8-1.9,6.1-6.2,6.1-6.2l-0.6-1c-0.1-0.1-8.7-13.8-20.5-41.6
				c-15.6-36.6-50.3-59.3-90.5-59.3C71.8,3.7,42.2,23.1,24.6,63.1z"/>
		</g>
		<g>
			<path fill="#DF731B" stroke="#000000" stroke-width="4" stroke-linecap="round" stroke-linejoin="round" d="M157.5,21
				c8.9-8.3,27.3-11.9,36.5-13.8c9.4-2,25.8-7.1,27.6-4.5c1.8,2.6,0,36.8-2.7,52.8c-1.5,8.9-6,19.3-6.6,26.3"/>
			<path fill="#DF731B" stroke="#000000" stroke-width="4" stroke-linecap="round" stroke-linejoin="round" d="M72.9,21
				C64,12.7,45.6,9.2,36.4,7.2C27,5.3,10.6,0.1,8.8,2.7c-1.8,2.6,0,36.8,2.7,52.8c1.5,8.9,6,19.3,6.6,26.3"/>
		</g>
		<g>
			<path fill="#FFFFCC" d="M54.3,45.9c-4.3-6-15.9-14-22-16.9c-5.3-2.5-14.8-8.1-15.9-6.6c-1.1,1.5,1.4,21.8,3,31
				c0.9,5.1,5.4,13.3,5.8,17.3c0.3,3,3.4,4.6,4.7,2.6c1.3-2.1,20.8-17.4,23-19.1S56.1,48.4,54.3,45.9z"/>
			<path fill="#FFFFCC" d="M176,45.9c4.3-6,15.9-14,22-16.9c5.3-2.5,14.8-8.1,15.9-6.6c1.1,1.5-1.4,21.8-3,31
				c-0.9,5.1-5.4,13.3-5.8,17.3c-0.3,3-3.4,4.6-4.7,2.6c-1.3-2.1-20.8-17.4-23-19.1C175.2,52.5,174.3,48.4,176,45.9z"/>
		</g>
		<path fill="none" stroke="#000000" stroke-width="4" stroke-linecap="round" stroke-linejoin="round" d="M74.8,170.2
			c0,10.9,9.7,19.8,21.6,19.8c8,0,15-4,18.7-9.9c3.7,5.9,10.7,9.9,18.7,9.9c12,0,21.6-8.9,21.6-19.8"/>
		<path fill="#332F20" stroke="#000000" stroke-width="4" stroke-linecap="round" stroke-linejoin="round" d="M115.2,159.1
			c13.1,0,17.5,5.3,11.3,14.7c-6.2,9.4-16.4,9.4-22.6,0C97.7,164.4,102.1,159.1,115.2,159.1z"/>
	</g>
	<g>
		<g>
			<path fill="none" stroke="#000000" stroke-width="3" stroke-linecap="round" stroke-linejoin="round" d="M64.5,157.3
				c-36.2-2.2-50.3,9.8-50.3,9.8"/>
			<path fill="none" stroke="#000000" stroke-width="3" stroke-linecap="round" stroke-linejoin="round" d="M66.7,167.1
				C35.4,171.6,27,182.7,27,182.7"/>
			<path fill="none" stroke="#000000" stroke-width="3" stroke-linecap="round" stroke-linejoin="round" d="M62.3,146.6
				C25.2,136.8,4,145.3,4,145.3"/>
		</g>
		<g>
			<path fill="none" stroke="#000000" stroke-width="3" stroke-linecap="round" stroke-linejoin="round" d="M165.8,157.3
				c36.2-2.2,50.3,9.8,50.3,9.8"/>
			<path fill="none" stroke="#000000" stroke-width="3" stroke-linecap="round" stroke-linejoin="round" d="M163.6,167.1
				c31.4,4.5,39.7,15.6,39.7,15.6"/>
			<path fill="none" stroke="#000000" stroke-width="3" stroke-linecap="round" stroke-linejoin="round" d="M168,146.6
				c37.1-9.8,58.3-1.3,58.3-1.3"/>
		</g>
	</g>
	<g>
		<g>
			<path d="M92.4,120.9c0,7-5.6,12.6-12.5,12.6c-6.9,0-12.5-5.7-12.5-12.6c0-7,5.6-12.6,12.5-12.6C86.8,108.3,92.4,114,92.4,120.9z"
				/>
			<path fill="#FFFFFF" d="M78.6,125.5c0,2.7-2,4.8-4.5,4.8c-2.5,0-4.5-2.2-4.5-4.8c0-2.7,2-4.8,4.5-4.8
				C76.5,120.7,78.6,122.8,78.6,125.5z"/>
		</g>
		<g>
			<path d="M163,120.9c0,7-5.6,12.6-12.5,12.6c-6.9,0-12.5-5.7-12.5-12.6c0-7,5.6-12.6,12.5-12.6C157.4,108.3,163,114,163,120.9z"/>
			<path fill="#FFFFFF" d="M149.1,125.5c0,2.7-2,4.8-4.5,4.8c-2.5,0-4.5-2.2-4.5-4.8c0-2.7,2-4.8,4.5-4.8
				C147.1,120.7,149.1,122.8,149.1,125.5z"/>
		</g>
	</g>
</g>
</svg>
