<?xml version="1.0" encoding="utf-8"?>
<!-- Generator: Adobe Illustrator 22.0.1, SVG Export Plug-In . SVG Version: 6.00 Build 0)  -->
<svg version="1.2" baseProfile="tiny" id="レイヤー_1"
	 xmlns="http://www.w3.org/2000/svg" xmlns:xlink="http://www.w3.org/1999/xlink" x="0px" y="0px" width="311px" height="232.5px"
	 viewBox="0 0 311 232.5" xml:space="preserve">
<g id="頭_正面_xFF08_寝顔_xFF09_">
	<g>
		<g>
			<path fill="none" stroke="#20BF00" stroke-width="3" stroke-linecap="round" stroke-linejoin="round" d="M124.8,184.4
				c0,5.3-4.3,9.7-9.7,9.7s-9.7-4.3-9.7-9.7s4.3-9.7,9.7-9.7S124.8,179,124.8,184.4z"/>
			
				<line fill="none" stroke="#20BF00" stroke-width="2.7066" stroke-linecap="round" stroke-linejoin="round" x1="98.3" y1="184.4" x2="132.1" y2="184.4"/>
			
				<line fill="none" stroke="#20BF00" stroke-width="2.7212" stroke-linecap="round" stroke-linejoin="round" x1="115.2" y1="168.7" x2="115.2" y2="200.1"/>
		</g>
		<g>
			<g>
				<path fill="#DF731B" d="M24.6,90.3L24.6,90.3c-12.2,27.6-20.4,41.4-20.5,41.5l-0.6,1c0,0,4.2,4.3,6.1,6.2
					C7.4,140,2,142.4,2,142.4s5.5,5,7.3,6.7c-1.9,1.1-7.1,4.2-7.1,4.2l2,1.3c0.2,0.1,15.3,10.3,24.7,30.6
					c5,10.6,25.9,45.3,86.3,45.3l0,0c59.5,0,80.4-32.2,86.6-46.1c8-17.7,24.2-29.7,24.4-29.8l1.8-1.3c0,0-5.1-3-7-4.1
					c1.9-1.7,7.3-6.7,7.3-6.7s-5.4-2.4-7.6-3.3c1.8-1.9,6.1-6.2,6.1-6.2l-0.6-1c-0.1-0.1-8.7-13.8-20.5-41.6
					C190.1,53.7,155.5,31,115.2,31C71.8,31,42.2,50.4,24.6,90.3z"/>
				<path fill="#FFFFCC" d="M29,185.2c5,10.6,25.9,45.3,86.3,45.3c59.5,0,80.4-32.2,86.6-46.1c5.9-13.2,16.4-23.2,21.5-27.5
					c-15,1.8-33,1.8-51.4,13.8c-24.9,16.3-25,24.9-56.9,24.9c0.2,0,0.4,0,0.5,0h-1.1c0.2,0,0.4,0,0.5,0c-30.5,0-32-8.6-56.9-24.9
					C40,158.9,22.1,158.8,7.3,157C12.2,161.1,22.1,170.5,29,185.2z"/>
				<path fill="none" stroke="#000000" stroke-width="4" stroke-linecap="round" stroke-linejoin="round" d="M24.6,90.3L24.6,90.3
					c-12.2,27.6-20.4,41.4-20.5,41.5l-0.6,1c0,0,4.2,4.3,6.1,6.2C7.4,140,2,142.4,2,142.4s5.5,5,7.3,6.7c-1.9,1.1-7.1,4.2-7.1,4.2
					l2,1.3c0.2,0.1,15.3,10.3,24.7,30.6c5,10.6,25.9,45.3,86.3,45.3l0,0c59.5,0,80.4-32.2,86.6-46.1c8-17.7,24.2-29.7,24.4-29.8
					l1.8-1.3c0,0-5.1-3-7-4.1c1.9-1.7,7.3-6.7,7.3-6.7s-5.4-2.4-7.6-3.3c1.8-1.9,6.1-6.2,6.1-6.2l-0.6-1
					c-0.1-0.1-8.7-13.8-20.5-41.6C190.1,53.7,155.5,31,115.2,31C71.8,31,42.2,50.4,24.6,90.3z"/>
			</g>
			<g>
				<path fill="#DF731B" stroke="#000000" stroke-width="4" stroke-linecap="round" stroke-linejoin="round" d="M157.5,48.3
					c8.9-8.3,27.3-11.9,36.5-13.8c9.4-2,25.8-7.1,27.6-4.5c1.8,2.6,0,36.8-2.7,52.8c-1.5,8.9-6,19.3-6.6,26.3"/>
				<path fill="#DF731B" stroke="#000000" stroke-width="4" stroke-linecap="round" stroke-linejoin="round" d="M72.9,48.3
					C64,40,45.6,36.4,36.4,34.5c-9.4-2-25.8-7.1-27.6-4.5c-1.8,2.6,0,36.8,2.7,52.8c1.5,8.9,6,19.3,6.6,26.3"/>
			</g>
			<g>
				<path fill="#FFFFCC" d="M54.3,73.2c-4.3-6-15.9-14-22-16.9c-5.3-2.5-14.8-8.1-15.9-6.6c-1.1,1.5,1.4,21.8,3,31
					c0.9,5.1,5.4,13.3,5.8,17.3c0.3,3,3.4,4.6,4.7,2.6c1.3-2.1,20.8-17.4,23-19.1S56.1,75.6,54.3,73.2z"/>
				<path fill="#FFFFCC" d="M176,73.2c4.3-6,15.9-14,22-16.9c5.3-2.5,14.8-8.1,15.9-6.6c1.1,1.5-1.4,21.8-3,31
					c-0.9,5.1-5.4,13.3-5.8,17.3c-0.3,3-3.4,4.6-4.7,2.6c-1.3-2.1-20.8-17.4-23-19.1C175.2,79.8,174.3,75.6,176,73.2z"/>
			</g>
			<path fill="none" stroke="#000000" stroke-width="4" stroke-linecap="round" stroke-linejoin="round" d="M74.8,197.4
				c0,10.9,9.7,19.8,21.6,19.8c8,0,15-4,18.7-9.9c3.7,5.9,10.7,9.9,18.7,9.9c12,0,21.6-8.9,21.6-19.8"/>
			<path fill="#332F20" stroke="#000000" stroke-width="4" stroke-linecap="round" stroke-linejoin="round" d="M115.2,186.3
				c13.1,0,17.5,5.3,11.3,14.7c-6.2,9.4-16.4,9.4-22.6,0C97.7,191.6,102.1,186.3,115.2,186.3z"/>
		</g>
		<g>
			<g>
				<path fill="none" stroke="#000000" stroke-width="3" stroke-linecap="round" stroke-linejoin="round" d="M64.5,184.6
					c-36.2-2.2-50.3,9.8-50.3,9.8"/>
				<path fill="none" stroke="#000000" stroke-width="3" stroke-linecap="round" stroke-linejoin="round" d="M66.7,194.3
					C35.4,198.8,27,209.9,27,209.9"/>
				<path fill="none" stroke="#000000" stroke-width="3" stroke-linecap="round" stroke-linejoin="round" d="M62.3,173.9
					C25.2,164.1,4,172.5,4,172.5"/>
			</g>
			<g>
				<path fill="none" stroke="#000000" stroke-width="3" stroke-linecap="round" stroke-linejoin="round" d="M165.8,184.6
					c36.2-2.2,50.3,9.8,50.3,9.8"/>
				<path fill="none" stroke="#000000" stroke-width="3" stroke-linecap="round" stroke-linejoin="round" d="M163.6,194.3
					c31.4,4.5,39.7,15.6,39.7,15.6"/>
				<path fill="none" stroke="#000000" stroke-width="3" stroke-linecap="round" stroke-linejoin="round" d="M168,173.9
					c37.1-9.8,58.3-1.3,58.3-1.3"/>
			</g>
		</g>
		<g>
			<g>
				
					<line fill="none" stroke="#000000" stroke-width="4" stroke-linecap="round" stroke-linejoin="round" x1="65" y1="154.3" x2="89.2" y2="153.3"/>
				
					<line fill="none" stroke="#000000" stroke-width="4" stroke-linecap="round" stroke-linejoin="round" x1="65" y1="159.1" x2="89.7" y2="157.5"/>
				
					<line fill="none" stroke="#000000" stroke-width="4" stroke-linecap="round" stroke-linejoin="round" x1="67.7" y1="157" x2="86" y2="156.4"/>
				
					<line fill="none" stroke="#000000" stroke-width="4" stroke-linecap="round" stroke-linejoin="round" x1="65" y1="163.3" x2="88.1" y2="160.6"/>
			</g>
			<g>
				
					<line fill="none" stroke="#000000" stroke-width="4" stroke-linecap="round" stroke-linejoin="round" x1="165.3" y1="154.3" x2="141.2" y2="153.3"/>
				
					<line fill="none" stroke="#000000" stroke-width="4" stroke-linecap="round" stroke-linejoin="round" x1="165.3" y1="159.1" x2="140.6" y2="157.5"/>
				
					<line fill="none" stroke="#000000" stroke-width="4" stroke-linecap="round" stroke-linejoin="round" x1="162.7" y1="157" x2="144.3" y2="156.4"/>
				
					<line fill="none" stroke="#000000" stroke-width="4" stroke-linecap="round" stroke-linejoin="round" x1="165.3" y1="163.3" x2="142.2" y2="160.6"/>
			</g>
		</g>
	</g>
	<g>
		<path fill="#C4E7FF" stroke="#0976DB" stroke-width="4" stroke-linecap="round" stroke-linejoin="round" d="M254.4,55.1
			c0,1.7-2.1,3.2-4.7,3.2s-4.7-1.4-4.7-3.2c0-1.7,2.1-3.2,4.7-3.2S254.4,53.3,254.4,55.1z"/>
		<path fill="#C4E7FF" stroke="#0976DB" stroke-width="4" stroke-linecap="round" stroke-linejoin="round" d="M272.8,42.4
			c0,3.2-3.4,5.8-7.6,5.8c-4.2,0-7.6-2.6-7.6-5.8s3.4-5.8,7.6-5.8S272.8,39.3,272.8,42.4z"/>
		<path fill="#C4E7FF" stroke="#0976DB" stroke-width="4" stroke-linecap="round" stroke-linejoin="round" d="M309,39.6
			c0,5.1-5.5,9.2-12.3,9.2c-6.8,0-12.3-4.1-12.3-9.2c0-5.1,5.5-9.2,12.3-9.2S309,34.5,309,39.6z"/>
		<path fill="#C4E7FF" stroke="#0976DB" stroke-width="4" stroke-linecap="round" stroke-linejoin="round" d="M295.9,15.1
			c0,7.3-8.7,13.1-19.4,13.1c-10.7,0-19.4-5.9-19.4-13.1S265.7,2,276.4,2C287.2,2,295.9,7.9,295.9,15.1z"/>
	</g>
</g>
</svg>
