<?xml version="1.0" encoding="UTF-8" standalone="no"?>
<svg
   xmlns:dc="http://purl.org/dc/elements/1.1/"
   xmlns:cc="http://creativecommons.org/ns#"
   xmlns:rdf="http://www.w3.org/1999/02/22-rdf-syntax-ns#"
   xmlns:svg="http://www.w3.org/2000/svg"
   xmlns="http://www.w3.org/2000/svg"
   xml:space="preserve"
   viewBox="0 0 225.1 436.7"
   height="436.7px"
   width="225.1px"
   y="0px"
   x="0px"
   id="レイヤー_1"
   version="1.2"><metadata
   id="metadata109"><rdf:RDF><cc:Work
       rdf:about=""><dc:format>image/svg+xml</dc:format><dc:type
         rdf:resource="http://purl.org/dc/dcmitype/StillImage" /><dc:title></dc:title></cc:Work></rdf:RDF></metadata><defs
   id="defs107">
	

		
			
		
	</defs>
<g
   id="g99">
			<g
   id="g97">
				<linearGradient
   y2="109.842"
   x2="182.46919"
   y1="373.849"
   x1="63.089001"
   gradientUnits="userSpaceOnUse"
   id="SVGID_1_">
					<stop
   id="stop4"
   style="stop-color:#B9120D"
   offset="0" />
					<stop
   id="stop6"
   style="stop-color:#BB180D"
   offset="7.800000e-02" />
					<stop
   id="stop8"
   style="stop-color:#C0290C"
   offset="0.1822" />
					<stop
   id="stop10"
   style="stop-color:#C8450A"
   offset="0.3013" />
					<stop
   id="stop12"
   style="stop-color:#D36C08"
   offset="0.4314" />
					<stop
   id="stop14"
   style="stop-color:#E29E05"
   offset="0.5706" />
					<stop
   id="stop16"
   style="stop-color:#F4DA02"
   offset="0.7151" />
					<stop
   id="stop18"
   style="stop-color:#FEFD00"
   offset="0.7921" />
					<stop
   id="stop20"
   style="stop-color:#FEFD07"
   offset="0.8136" />
					<stop
   id="stop22"
   style="stop-color:#FEFD1B"
   offset="0.8455" />
					<stop
   id="stop24"
   style="stop-color:#FEFE3C"
   offset="0.8837" />
					<stop
   id="stop26"
   style="stop-color:#FFFE69"
   offset="0.9268" />
					<stop
   id="stop28"
   style="stop-color:#FFFFA3"
   offset="0.9736" />
					<stop
   id="stop30"
   style="stop-color:#FFFFC7"
   offset="1" />
				</linearGradient>
				<path
   style="fill:url(#SVGID_1_)"
   id="path33"
   d="m 42.2,411.9 c 54.6,-5.6 113.9,-25.7 140.4,-84.2 31.9,-70.6 10.4,-126 1.6,-163.7 -8.8,-37.7 -10.4,-51.3 -10.4,-51.3 0,0 -4.8,-1.6 -8.8,21.7 -2.1,12 -1.6,24.1 -1.6,24.1 0,0 -5.6,-13.6 -8.8,-32.9 -3.2,-19.3 -22.5,-50.5 -22.5,-50.5 0,0 8.8,36.1 -4,58.6 -12.8,22.5 -21.9,38.8 -56.2,53.8 -38.5,16.8 -58.6,56.2 -38.5,101.1 16.2,36.4 19.3,61 8,79.4 -11.2,18.3 0.8,43.9 0.8,43.9 z" />
				<linearGradient
   y2="96.048599"
   x2="151.96561"
   y1="360.05539"
   x1="32.585602"
   gradientUnits="userSpaceOnUse"
   id="SVGID_2_">
					<stop
   id="stop35"
   style="stop-color:#B9120D"
   offset="0" />
					<stop
   id="stop37"
   style="stop-color:#BB180D"
   offset="7.800000e-02" />
					<stop
   id="stop39"
   style="stop-color:#C0290C"
   offset="0.1822" />
					<stop
   id="stop41"
   style="stop-color:#C8450A"
   offset="0.3013" />
					<stop
   id="stop43"
   style="stop-color:#D36C08"
   offset="0.4314" />
					<stop
   id="stop45"
   style="stop-color:#E29E05"
   offset="0.5706" />
					<stop
   id="stop47"
   style="stop-color:#F4DA02"
   offset="0.7151" />
					<stop
   id="stop49"
   style="stop-color:#FEFD00"
   offset="0.7921" />
					<stop
   id="stop51"
   style="stop-color:#FEFD07"
   offset="0.8136" />
					<stop
   id="stop53"
   style="stop-color:#FEFD1B"
   offset="0.8455" />
					<stop
   id="stop55"
   style="stop-color:#FEFE3C"
   offset="0.8837" />
					<stop
   id="stop57"
   style="stop-color:#FFFE69"
   offset="0.9268" />
					<stop
   id="stop59"
   style="stop-color:#FFFFA3"
   offset="0.9736" />
					<stop
   id="stop61"
   style="stop-color:#FFFFC7"
   offset="1" />
				</linearGradient>
				<path
   style="fill:url(#SVGID_2_)"
   id="path64"
   d="m 160.2,45.3 c -4,11.2 -5.6,17.7 -3.2,29.7 2.4,12 8,24.9 8,24.9 0,0 0,-10.4 1.6,-20.9 1.6,-10.4 -4,-24.1 -6.4,-33.7 z" />
				<linearGradient
   y2="94.184601"
   x2="147.8434"
   y1="358.19101"
   x1="28.4636"
   gradientUnits="userSpaceOnUse"
   id="SVGID_3_">
					<stop
   id="stop66"
   style="stop-color:#B9120D"
   offset="0" />
					<stop
   id="stop68"
   style="stop-color:#BB180D"
   offset="7.800000e-02" />
					<stop
   id="stop70"
   style="stop-color:#C0290C"
   offset="0.1822" />
					<stop
   id="stop72"
   style="stop-color:#C8450A"
   offset="0.3013" />
					<stop
   id="stop74"
   style="stop-color:#D36C08"
   offset="0.4314" />
					<stop
   id="stop76"
   style="stop-color:#E29E05"
   offset="0.5706" />
					<stop
   id="stop78"
   style="stop-color:#F4DA02"
   offset="0.7151" />
					<stop
   id="stop80"
   style="stop-color:#FEFD00"
   offset="0.7921" />
					<stop
   id="stop82"
   style="stop-color:#FEFD07"
   offset="0.8136" />
					<stop
   id="stop84"
   style="stop-color:#FEFD1B"
   offset="0.8455" />
					<stop
   id="stop86"
   style="stop-color:#FEFE3C"
   offset="0.8837" />
					<stop
   id="stop88"
   style="stop-color:#FFFE69"
   offset="0.9268" />
					<stop
   id="stop90"
   style="stop-color:#FFFFA3"
   offset="0.9736" />
					<stop
   id="stop92"
   style="stop-color:#FFFFC7"
   offset="1" />
				</linearGradient>
				<path
   style="fill:url(#SVGID_3_)"
   id="path95"
   d="m 171.9,26.4 c -1.7,4 -2.9,7.5 -2.9,11.5 0,4 3.5,8.1 4.6,13.8 1.7,-6.3 1.7,-7.5 1.7,-13.3 0.1,-5.7 -3.4,-6.8 -3.4,-12 z" />
			</g>
		</g>
</svg>