<?xml version="1.0" encoding="UTF-8" standalone="no"?>
<svg
   xmlns:dc="http://purl.org/dc/elements/1.1/"
   xmlns:cc="http://creativecommons.org/ns#"
   xmlns:rdf="http://www.w3.org/1999/02/22-rdf-syntax-ns#"
   xmlns:svg="http://www.w3.org/2000/svg"
   xmlns="http://www.w3.org/2000/svg"
   xml:space="preserve"
   viewBox="0 0 268.5 443.9"
   height="443.9px"
   width="268.5px"
   y="0px"
   x="0px"
   id="レイヤー_1"
   version="1.2"><metadata
   id="metadata109"><rdf:RDF><cc:Work
       rdf:about=""><dc:format>image/svg+xml</dc:format><dc:type
         rdf:resource="http://purl.org/dc/dcmitype/StillImage" /><dc:title></dc:title></cc:Work></rdf:RDF></metadata><defs
   id="defs107">
	

		
			
		
	</defs>
<g
   id="g99">
			<g
   id="g97">
				<linearGradient
   y2="204.728"
   x2="37.257"
   y1="391.33649"
   x1="197.84219"
   gradientUnits="userSpaceOnUse"
   id="SVGID_1_">
					<stop
   id="stop4"
   style="stop-color:#B9120D"
   offset="0" />
					<stop
   id="stop6"
   style="stop-color:#BB180D"
   offset="7.800000e-02" />
					<stop
   id="stop8"
   style="stop-color:#C0290C"
   offset="0.1822" />
					<stop
   id="stop10"
   style="stop-color:#C8450A"
   offset="0.3013" />
					<stop
   id="stop12"
   style="stop-color:#D36C08"
   offset="0.4314" />
					<stop
   id="stop14"
   style="stop-color:#E29E05"
   offset="0.5706" />
					<stop
   id="stop16"
   style="stop-color:#F4DA02"
   offset="0.7151" />
					<stop
   id="stop18"
   style="stop-color:#FEFD00"
   offset="0.7921" />
					<stop
   id="stop20"
   style="stop-color:#FEFD07"
   offset="0.8136" />
					<stop
   id="stop22"
   style="stop-color:#FEFD1B"
   offset="0.8455" />
					<stop
   id="stop24"
   style="stop-color:#FEFE3C"
   offset="0.8837" />
					<stop
   id="stop26"
   style="stop-color:#FFFE69"
   offset="0.9268" />
					<stop
   id="stop28"
   style="stop-color:#FFFFA3"
   offset="0.9736" />
					<stop
   id="stop30"
   style="stop-color:#FFFFC7"
   offset="1" />
				</linearGradient>
				<path
   style="fill:url(#SVGID_1_)"
   id="path33"
   d="m 251.4,324.1 -14,1.9 12.7,-12.7 -15.2,4.4 9.5,-7.6 c 0,0 -19,3.8 -35.5,1.3 -16.5,-2.5 -60.3,3.2 -54.6,-54.6 6.2,-62.7 -33.6,-106.6 -50.8,-133.3 -17.2,-26.7 -19,-41.9 -19,-41.9 0,0 7.6,34.3 6.3,47 -1.3,12.7 -5.7,20.9 -5.7,20.9 0,0 1.9,-7 -5.7,-18.4 -7.6,-11.4 -15.2,-24.8 -15.2,-24.8 0,0 17.1,33 4.4,69.8 -12.7,36.8 -62.2,73.7 -49.5,156.9 12.7,83.1 87.6,102.8 139,95.2 42.5,-6.3 81.2,-68.6 93.3,-104.1 z" />
				<linearGradient
   y2="133.7534"
   x2="119.7334"
   y1="320.36099"
   x1="280.3179"
   gradientUnits="userSpaceOnUse"
   id="SVGID_2_">
					<stop
   id="stop35"
   style="stop-color:#B9120D"
   offset="0" />
					<stop
   id="stop37"
   style="stop-color:#BB180D"
   offset="7.800000e-02" />
					<stop
   id="stop39"
   style="stop-color:#C0290C"
   offset="0.1822" />
					<stop
   id="stop41"
   style="stop-color:#C8450A"
   offset="0.3013" />
					<stop
   id="stop43"
   style="stop-color:#D36C08"
   offset="0.4314" />
					<stop
   id="stop45"
   style="stop-color:#E29E05"
   offset="0.5706" />
					<stop
   id="stop47"
   style="stop-color:#F4DA02"
   offset="0.7151" />
					<stop
   id="stop49"
   style="stop-color:#FEFD00"
   offset="0.7921" />
					<stop
   id="stop51"
   style="stop-color:#FEFD07"
   offset="0.8136" />
					<stop
   id="stop53"
   style="stop-color:#FEFD1B"
   offset="0.8455" />
					<stop
   id="stop55"
   style="stop-color:#FEFE3C"
   offset="0.8837" />
					<stop
   id="stop57"
   style="stop-color:#FFFE69"
   offset="0.9268" />
					<stop
   id="stop59"
   style="stop-color:#FFFFA3"
   offset="0.9736" />
					<stop
   id="stop61"
   style="stop-color:#FFFFC7"
   offset="1" />
				</linearGradient>
				<path
   style="fill:url(#SVGID_2_)"
   id="path64"
   d="m 54,50.3 c 2.4,11.7 4.3,18 12.6,27.1 8.3,9.1 14,23.3 14,23.3 0,0 -3.6,-22 -7.6,-31.8 C 69,59.2 61.1,57.3 54,50.3 Z" />
				<linearGradient
   y2="124.0162"
   x2="131.04021"
   y1="310.61819"
   x1="291.61981"
   gradientUnits="userSpaceOnUse"
   id="SVGID_3_">
					<stop
   id="stop66"
   style="stop-color:#B9120D"
   offset="0" />
					<stop
   id="stop68"
   style="stop-color:#BB180D"
   offset="7.800000e-02" />
					<stop
   id="stop70"
   style="stop-color:#C0290C"
   offset="0.1822" />
					<stop
   id="stop72"
   style="stop-color:#C8450A"
   offset="0.3013" />
					<stop
   id="stop74"
   style="stop-color:#D36C08"
   offset="0.4314" />
					<stop
   id="stop76"
   style="stop-color:#E29E05"
   offset="0.5706" />
					<stop
   id="stop78"
   style="stop-color:#F4DA02"
   offset="0.7151" />
					<stop
   id="stop80"
   style="stop-color:#FEFD00"
   offset="0.7921" />
					<stop
   id="stop82"
   style="stop-color:#FEFD07"
   offset="0.8136" />
					<stop
   id="stop84"
   style="stop-color:#FEFD1B"
   offset="0.8455" />
					<stop
   id="stop86"
   style="stop-color:#FEFE3C"
   offset="0.8837" />
					<stop
   id="stop88"
   style="stop-color:#FFFE69"
   offset="0.9268" />
					<stop
   id="stop90"
   style="stop-color:#FFFFA3"
   offset="0.9736" />
					<stop
   id="stop92"
   style="stop-color:#FFFFC7"
   offset="1" />
				</linearGradient>
				<path
   style="fill:url(#SVGID_3_)"
   id="path95"
   d="m 45.2,19.8 c 0.1,4.4 0.5,8 2.2,11.7 1.7,3.7 6.5,5.9 10,10.6 -1.1,-6.5 -1.6,-7.5 -4,-12.8 -2.4,-5.2 -6,-4.8 -8.2,-9.5 z" />
			</g>
		</g>
</svg>