<?xml version="1.0" encoding="UTF-8"?>
<svg width="206px" height="111px" viewBox="0 0 206 111" version="1.1" xmlns="http://www.w3.org/2000/svg" xmlns:xlink="http://www.w3.org/1999/xlink">
    <!-- Generator: Sketch 54.1 (76490) - https://sketchapp.com -->
    <title>Group 4</title>
    <desc>Created with Sketch.</desc>
    <g id="Page-1" stroke="none" stroke-width="1" fill="none" fill-rule="evenodd">
        <g id="Group-4" transform="translate(-1.000000, -114.000000)">
            <g id="Mozilla_Phoenix_logo_vector">
                <g id="g4163" transform="translate(103.262504, 109.356265) scale(-1, 1) rotate(-180.000000) translate(-103.262504, -109.356265) translate(0.188430, 0.780389)">
                    <path d="M162.937963,38.8116342 C169.370616,40.0127549 166.827306,53.123716 169.563028,43.978001" id="path4323" stroke="#000000" stroke-width="1.10755"></path>
                    <polygon id="path4167" fill-opacity="0" fill="#000000" fill-rule="nonzero" points="0.329240741 12.2683317 205.582944 12.2683317 205.582944 216.653935 0.329240741 216.653935"></polygon>
                    <path d="M120.473148,59.8938035 C142.374259,69.4177315 146.906111,61.7118132 155.241481,63.9403755 C172.445694,69.1403541 170.981574,77.4847918 164.949398,87.3202393 C172.520764,83.5971683 178.043426,76.3036051 183.236528,68.4360953 L184.591079,57.9823804 L169.916866,51.3504514 L124.424782,53.7109163 L120.473148,59.8938035 Z" id="path4337" stroke="#000000" stroke-width="1.10755" fill="#F00027"></path>
                    <path d="M89.084537,60.5692218 C80.8820556,72.1594844 61.4291667,60.025685 52.284537,62.3677218 C37.9712963,66.03343 37.3121759,79.604142 43.7054306,87.0963016 C36.1345972,83.3746089 30.6124676,76.0807276 25.4193657,68.2132179 L24.0648148,57.7595029 L38.7390278,51.1275739 L84.2311111,53.4880389 L89.084537,60.5692218 Z" id="path4337-8" stroke="#000000" stroke-width="1.10755" fill="#F00027"></path>
                    <path d="M87.0315741,59.7156712 C62.4812037,67.8408366 46.1629167,52.6084047 41.2147222,53.1979377 C22.2610185,55.4542802 22.2397222,69.4122179 27.3263426,81.8114981 C23.048662,75.3112597 17.784963,74.7017928 15.0341204,59.0794844 C12.8153657,61.3377354 10.2954815,61.9973551 9.28710185,70.6835311 C3.91202315,53.8203405 7.35957407,49.90143 9.7652037,44.4546109 C7.79210185,45.749251 5.80260185,47.0661576 2.58143056,50.0180642 C3.25939815,42.0954183 6.05379167,38.3875097 8.32844907,33.6447374 L2.58143056,37.1427043 C12.0705278,11.267928 25.883838,1.5406323 42.1712454,1.05713035 C58.1999028,2.53276556 66.3329583,5.13021012 75.8555972,7.41571109 L87.0315741,59.7156712 Z" id="path4286" stroke="#000000" stroke-width="1.10755" fill="#CC002B"></path>
                    <path d="M123.156151,57.6965204 C127.128443,59.9769319 133.37305,60.8247568 138.482031,60.7168171 C147.126304,61.2135093 163.70004,52.8062588 167.376846,52.7686177 C176.747003,52.6726383 188.585827,62.3406839 181.424948,81.0640846 C186.365475,74.569466 191.358712,70.2213414 193.499948,58.9873434 C196.923327,61.0491187 198.071304,65.3765671 199.464721,69.4597198 C203.554142,60.3470866 202.404462,52.1034844 199.305084,44.1840195 C201.269241,45.2802753 203.293348,46.5853064 205.850288,49.7477909 C206.225667,42.76193 202.287204,38.7831119 199.943653,33.6925574 L204.892487,36.3949728 C198.944005,18.6177938 189.311051,3.67376654 168.728181,0.767453307 C155.761931,3.65309047 143.399431,7.67559339 127.860588,7.14533171 L118.542639,31.5390652 L119.709719,36.3949728 C123.531566,52.8588502 124.680377,59.9593661 123.156151,57.6965204" id="Path" stroke="#000000" stroke-width="1.10755" fill="#CC002B"></path>
                    <path d="M166.611574,27.815358 C176.623176,31.0078492 177.868796,40.5656012 175.870671,51.104035 C173.815259,44.4929942 171.965889,43.8537325 169.804421,42.9173716 C170.529752,36.8278979 170.320654,30.9613016 166.611574,27.815358 Z" id="path4321" stroke="#000000" stroke-width="1.10755" fill="#F00027"></path>
                    <path d="M162.746296,38.9865856 C165.524292,39.5679437 167.54531,42.1855447 168.67263,47.6979971 L169.745005,44.1009971" id="path4327" stroke="#000000" stroke-width="1.10755" stroke-linecap="square"></path>
                    <path d="M176.748611,42.4675875 C179.12581,44.2936556 180.86231,46.6300516 182.176398,49.3030963 L183.250264,42.3126761" id="path4331" stroke="#000000" stroke-width="1.10755" stroke-linejoin="bevel"></path>
                    <path d="M182.573148,46.6802043 C185.891005,48.5449737 187.90787,52.0754922 189.756921,55.8207237 C190.053323,47.9903249 191.53431,39.8556167 185.526412,33.6453735 C187.988903,34.559839 190.090102,35.7107539 192.311093,38.0169309 C190.663079,33.5347831 189.457282,28.343287 185.366796,24.2668142 C186.530106,24.5370875 187.176236,23.9492298 189.517444,26.1744202 C186.549912,12.9396148 177.132583,10.9144202 168.844065,7.25740661 C172.570704,10.9677539 176.371454,14.5455623 178.821593,19.1000233 C177.112671,18.9115212 175.479458,18.7607237 174.191991,18.7820996 C178.691579,21.9573078 180.918958,26.3666123 183.131856,30.783763 C181.113926,29.5190237 178.78869,28.7132932 176.347176,28.0813477 C181.441676,32.8430996 182.308222,39.6185947 182.573148,46.6802679 L182.573148,46.6802043 Z" id="path4329" stroke="#000000" stroke-width="1.10755" fill="#F00027"></path>
                    <path d="M153.780556,23.193249 C159.34762,22.4269409 160.663093,25.894286 163.149861,28.1952675 L162.641891,24.429678" id="path4333" stroke="#000000" stroke-width="1.10755" stroke-linejoin="bevel"></path>
                    <path d="M162.639815,24.5983735 C168.140116,24.4044956 169.409907,27.0929679 172.347731,28.6449455 C167.417958,13.3997899 159.371898,12.5875914 153.270509,13.3011809 C157.613037,16.2619942 161.725671,19.262251 162.639815,24.5977374 L162.639815,24.5983735 Z" id="path4335" stroke="#000000" stroke-width="1.10755" fill="#F00027"></path>
                    <path d="M40.0242593,30.3153599 C30.0126574,33.5078512 28.767037,43.0656031 30.765162,53.604037 C32.8205741,46.9929961 34.6699444,46.3537344 36.831412,45.4173735 C36.1060815,39.3278998 36.3151792,33.4613035 40.0242593,30.3153599 Z" id="path4321-6" stroke="#000000" stroke-width="1.10755" fill="#F00027"></path>
                    <path d="M43.8288426,39.7892412 C41.0508472,40.3705993 39.0298287,42.9882004 37.9025093,48.5006527 L36.8301343,44.9036527" id="path4327-0" stroke="#000000" stroke-width="1.10755" stroke-linecap="square"></path>
                    <path d="M29.8872222,43.2713035 C27.5100231,45.0973716 25.7735231,47.4337675 24.4594352,50.1068123 L23.3855694,43.116392" id="path4331-0" stroke="#000000" stroke-width="1.10755" stroke-linejoin="bevel"></path>
                    <path d="M24.0605556,47.4839202 C20.7426991,49.3486897 18.7258333,52.8792082 16.8767824,56.6244397 C16.5803806,48.7940409 15.0993935,40.6593327 21.1072917,34.4490895 C18.6448009,35.363555 16.5436019,36.5144698 14.3226111,38.8206469 C15.970625,34.338499 17.1764213,29.1470029 21.2669074,25.0705302 C20.1035972,25.3408141 19.4574676,24.7529563 17.1162593,26.9781362 C20.0837917,13.7433307 29.5011204,11.7181362 37.7896389,8.06112257 C34.063,11.7714698 30.26225,15.3492782 27.8121111,19.9037393 C29.5210324,19.7152372 31.1542454,19.5644291 32.441713,19.5858156 C27.9418056,22.7602815 25.714213,27.169586 23.5015278,31.5864187 C25.5193519,30.3225276 27.8449074,29.516479 30.2865278,28.8845335 C25.1924537,33.6466035 24.3256944,40.4217805 24.0605556,47.4834537 L24.0605556,47.4839202 Z" id="path4329-1" stroke="#000000" stroke-width="1.10755" fill="#F00027"></path>
                    <path d="M52.8329167,24.1160379 C47.2658519,23.3497404 45.9503796,26.8170749 43.4636111,29.1180564 L43.971581,25.3524669" id="path4333-9" stroke="#000000" stroke-width="1.10755" stroke-linejoin="bevel"></path>
                    <path d="M34.2902315,29.4484494 C39.2200046,14.2032938 47.2660648,13.3910953 53.3674537,14.1046848 C49.0249259,17.0654981 44.9122917,20.0656488 43.9981481,25.4012412 C38.4978472,25.2079995 37.2280556,27.8964718 34.2902315,29.4484494 Z" id="path4335-5" stroke="#000000" stroke-width="1.10755" fill="#F00027"></path>
                    <path d="M44.0875926,77.2807879 C45.8576343,81.4178045 48.8823472,82.2218385 51.3512269,83.4009047 C47.3696713,78.0023298 50.1424491,75.785537 49.1960417,73.7040399 C47.3154722,69.5677656 42.5541528,73.6966177 44.0875926,77.2807879 Z" id="path4396" stroke="#000000" stroke-width="1.10755" fill="#F3611E"></path>
                    <path d="M171.605556,93.549144 C173.698769,99.0756984 177.275481,100.149794 180.195097,101.724992 C175.486699,94.513179 178.76569,91.5517296 177.646569,88.7711693 C175.422704,83.2455691 169.792282,88.7616265 171.605556,93.54925 L171.605556,93.549144 Z" id="path4396-2" stroke="#000000" stroke-width="1.10755" fill="#FE9D2A"></path>
                    <path d="M27.0232963,100.585688 C31.0048519,95.1871128 30.038213,90.947034 30.9845139,88.8660671 C32.8650833,84.7297928 36.9490741,88.4090199 35.4157407,91.9931372 C33.6456991,96.1296235 29.4921759,99.4065156 27.0232963,100.585688 Z" id="path4396-3-0" stroke="#000000" stroke-width="1.10755" fill="#F3611E"></path>
                    <path d="M33.8355556,88.0577918 C32.0655139,92.1948084 27.234662,93.2236284 24.7657824,94.4026946 C28.747338,89.0041196 27.7806991,86.5625409 28.727,84.4810438 C30.6075694,80.3447695 35.3688889,84.4736216 33.8354491,88.0577918 L33.8355556,88.0577918 Z" id="path4396-3" stroke="#000000" stroke-width="1.10755" fill="#F00027"></path>
                    <path d="M159.306944,74.3373638 C159.621906,71.4342315 164.766995,71.1820895 165.628324,74.3935603 C165.394129,81.4538551 160.212037,83.5606936 154.961009,85.1843482 C157.812157,81.5501313 159.306944,79.8788687 159.306944,74.3373638 L159.306944,74.3373638 Z" id="path4458" stroke="#000000" stroke-width="1.10755" fill="#F00027"></path>
                </g>
            </g>
            <g id="android" transform="translate(59.000000, 121.000000)" fill="#79C257" fill-rule="nonzero">
                <path d="M87.8114286,40.2175227 C87.8114286,36.6984894 84.92,33.807855 81.4,33.807855 C77.88,33.807855 74.9885714,36.6984894 74.9885714,40.2175227 L74.9885714,66.9244713 C74.9885714,70.4435045 77.88,73.334139 81.4,73.334139 C84.92,73.334139 87.8114286,70.4435045 87.8114286,66.9244713 L87.8114286,40.2175227 Z M13.0114286,40.2175227 C13.0114286,36.6984894 10.12,33.807855 6.6,33.807855 C3.08,33.807855 0.188571429,36.6984894 0.188571429,40.2175227 L0.188571429,66.9244713 C0.188571429,70.4435045 3.08,73.334139 6.6,73.334139 C10.12,73.334139 13.0114286,70.4435045 13.0114286,66.9244713 L13.0114286,40.2175227 Z M58.0171429,9.67734139 L62.5428571,1.5081571 C62.7942857,1.06827795 62.6371429,0.502719033 62.1971429,0.282779456 C62.0714286,0.219939577 61.9142857,0.157099698 61.7571429,0.157099698 C61.4428571,0.157099698 61.1285714,0.314199396 60.9714286,0.628398792 L56.3828571,8.8918429 C52.6428571,7.2265861 48.4314286,6.28398792 44,6.28398792 C39.5685714,6.28398792 35.3571429,7.2265861 31.6171429,8.8918429 L27.06,0.628398792 C26.8085714,0.188519637 26.2742857,0.0314199396 25.8342857,0.282779456 C25.3942857,0.534138973 25.2371429,1.06827795 25.4885714,1.5081571 L30.0142857,9.67734139 C21.2771429,14.2018127 15.4,22.7794562 15.4,32.6453172 L72.6,32.6453172 C72.6,22.7794562 66.7228571,14.2018127 58.0171429,9.67734139 Z M30.8,22.1824773 C29.48,22.1824773 28.4114286,21.1141994 28.4114286,19.7945619 C28.4114286,18.4749245 29.48,17.4066465 30.8,17.4066465 C32.12,17.4066465 33.1885714,18.4749245 33.1885714,19.7945619 C33.1885714,21.1141994 32.12,22.1824773 30.8,22.1824773 Z M57.2,22.1824773 C55.88,22.1824773 54.8114286,21.1141994 54.8114286,19.7945619 C54.8114286,18.4749245 55.88,17.4066465 57.2,17.4066465 C58.52,17.4066465 59.5885714,18.4749245 59.5885714,19.7945619 C59.5885714,21.1141994 58.52,22.1824773 57.2,22.1824773 Z M15.4,34.9075529 L15.4,76.3504532 C15.4,80.1836858 18.48,83.2628399 22.3142857,83.2628399 L26.9028571,83.2628399 L26.9028571,97.4018127 C26.9028571,100.920846 29.7942857,103.81148 33.3142857,103.81148 C36.8342857,103.81148 39.7257143,100.920846 39.7257143,97.4018127 L39.7257143,83.2628399 L48.2742857,83.2628399 L48.2742857,97.4018127 C48.2742857,100.920846 51.1657143,103.81148 54.6857143,103.81148 C58.2057143,103.81148 61.0971429,100.920846 61.0971429,97.4018127 L61.0971429,83.2628399 L65.6857143,83.2628399 C69.52,83.2628399 72.6,80.1836858 72.6,76.3504532 L72.6,34.9075529 L15.4,34.9075529 Z" id="Shape"></path>
            </g>
            <g id="Group-3" transform="translate(107.749170, 152.403893) rotate(-139.000000) translate(-107.749170, -152.403893) translate(94.249170, 142.403893)" stroke="#000000" stroke-width="0.97725">
                <path d="M22.3875937,0.0637366398 C15.7794375,-0.673522976 11.5088437,5.14758279 7.44946875,9.13325587 C12.6021562,5.87162126 18.5682187,2.79614049 25.9322812,4.44815972" id="path4309" fill="#F8DB00"></path>
                <path d="M12.3685312,6.68296741 C11.2112812,11.4016213 7.25971875,14.4054674 3.162375,16.485852 C6.09975,16.2872943 6.567375,18.0412366 15.9526875,8.91758279 C18.6764062,6.51162126 21.1020937,5.22104433 24.570375,4.53315972 C21.2024062,3.29392895 15.9992812,3.91970779 12.3688125,6.68315972 L12.3685312,6.68296741 Z" id="path4315" fill="#D36224"></path>
                <path d="M-5.22073382e-14,16.4136597 C1.0603125,20.6464482 10.0546875,20.3469289 11.385,19.2247174 C15.5732812,16.2443328 22.7278125,9.78615972 24.22125,12.0554866 C26.6758125,10.3504866 27.224625,7.95529433 25.932375,5.09740972 C22.5245625,5.2797751 19.2925312,6.1232751 16.444875,8.41298664 C7.7565,17.0998136 5.389875,17.0243328 3.5139375,16.2695251 L-5.22073382e-14,16.4136597 Z" id="path4319" fill="#ECD404" stroke-linejoin="bevel"></path>
            </g>
            <g id="Group-2" transform="translate(87.560246, 141.595455) rotate(-179.000000) translate(-87.560246, -141.595455) translate(82.060246, 138.095455)">
                <polygon id="path4307" fill="#680000" points="3.42506083 2.51550003 8.96411083 0.0934028038 7.9194775 2.36091669 4.27536083 5.65908336 3.40076917 4.70572225"></polygon>
                <path d="M8.77014417,0.99494447 C8.97268167,0.45410697 10.2052775,0.755388915 10.3007025,1.8452403 L10.93235,1.87100419 C8.72428333,-3.70352359 6.45525833,4.94555975 3.95990833,5.04025419 C4.03517583,3.49325419 4.2226525,1.86915697 1.89493333,1.97405975 C0.777333333,2.01994864 0.110091667,2.65220419 -7.99360578e-14,4.00960141 C0.204279167,5.9524903 0.938758333,5.90903197 1.57914167,6.23307364 C5.18595,7.29221253 7.0114,5.69135141 8.77020833,0.994934748 L8.77014417,0.99494447 Z" id="path4266" fill="#000000" fill-rule="nonzero"></path>
                <ellipse id="path4268" fill="#FFFFFF" fill-rule="nonzero" transform="translate(1.779644, 3.976750) scale(-1, 1) rotate(-180.000000) translate(-1.779644, -3.976750) " cx="1.77964417" cy="3.97675003" rx="1" ry="1"></ellipse>
            </g>
            <g id="Group" transform="translate(112.784116, 140.966038) rotate(-175.000000) translate(-112.784116, -140.966038) translate(107.284116, 137.466038)">
                <polygon id="path4307-copy" fill="#680000" points="3.42506083 2.51550003 8.96411083 0.0934028038 7.9194775 2.36091669 4.27536083 5.65908336 3.40076917 4.70572225"></polygon>
                <path d="M8.77014417,0.99494447 C8.97268167,0.45410697 10.2052775,0.755388915 10.3007025,1.8452403 L10.93235,1.87100419 C8.72428333,-3.70352359 6.45525833,4.94555975 3.95990833,5.04025419 C4.03517583,3.49325419 4.2226525,1.86915697 1.89493333,1.97405975 C0.777333333,2.01994864 0.110091667,2.65220419 -7.99360578e-14,4.00960141 C0.204279167,5.9524903 0.938758333,5.90903197 1.57914167,6.23307364 C5.18595,7.29221253 7.0114,5.69135141 8.77020833,0.994934748 L8.77014417,0.99494447 Z" id="path4266-copy" fill="#000000" fill-rule="nonzero"></path>
                <ellipse id="path4268-copy" fill="#FFFFFF" fill-rule="nonzero" transform="translate(1.779644, 3.976750) scale(-1, 1) rotate(-180.000000) translate(-1.779644, -3.976750) " cx="1.77964417" cy="3.97675003" rx="1" ry="1"></ellipse>
            </g>
        </g>
    </g>
</svg>