<?xml version="1.0" encoding="utf-8"?>
<!-- Generator: Adobe Illustrator 22.0.1, SVG Export Plug-In . SVG Version: 6.00 Build 0)  -->
<svg version="1.2" baseProfile="tiny" id="レイヤー_1"
	 xmlns="http://www.w3.org/2000/svg" xmlns:xlink="http://www.w3.org/1999/xlink" x="0px" y="0px" width="236px" height="228.4px"
	 viewBox="0 0 236 228.4" xml:space="preserve">
<g id="頭_横_xFF08_笑顔_xFF09_">
	<g>
		<path fill="none" stroke="#20BF00" stroke-width="3" stroke-linecap="round" stroke-linejoin="round" d="M169.2,169.4
			c0,5.3-4.3,9.7-9.7,9.7s-9.7-4.3-9.7-9.7c0-5.3,4.3-9.7,9.7-9.7S169.2,164,169.2,169.4z"/>
		
			<line fill="none" stroke="#20BF00" stroke-width="2.7066" stroke-linecap="round" stroke-linejoin="round" x1="142.6" y1="169.4" x2="176.5" y2="169.4"/>
		
			<line fill="none" stroke="#20BF00" stroke-width="2.7212" stroke-linecap="round" stroke-linejoin="round" x1="159.5" y1="153.7" x2="159.5" y2="185.1"/>
	</g>
	<g>
		<path fill="#DF731B" stroke="#000000" stroke-width="4" stroke-linecap="round" stroke-linejoin="round" d="M116.1,34.1
			C97.7,20.5,98.7,22,74,15.7S29.5,0.7,26.2,2.2c-3.4,1.4,1.9,32.4,7.2,47.4c5.3,15,15,31.4,17.4,35.8"/>
		<path fill="#FFFFCC" d="M77.9,52.6C60.7,39.6,34.3,17.9,31.9,20c-2.4,2.1,2.4,24.2,9.1,37.5c6.7,13.3,20.1,17.1,20.1,17.1
			L77.9,52.6z"/>
	</g>
	<g>
		<path fill="none" stroke="#000000" stroke-width="3" stroke-linecap="round" stroke-linejoin="round" d="M36.8,154.4
			c-17.9-11.6-31.4-8.7-31.4-8.7"/>
		<path fill="none" stroke="#000000" stroke-width="3" stroke-linecap="round" stroke-linejoin="round" d="M35.8,165.1
			c-18.9-5.3-34.3-1.9-34.3-1.9"/>
		<path fill="none" stroke="#000000" stroke-width="3" stroke-linecap="round" stroke-linejoin="round" d="M33.4,177.6
			c-24.2-1.5-28.5,1.4-28.5,1.4"/>
	</g>
	<g>
		<path fill="#DF731B" d="M87.4,37.7L87.4,37.7C49.8,50,39.1,76.9,34,99c-2.4,10.4-1.7,18.9-1,27.1c0.9,10.4,1.8,20.3-3.9,33.3
			c-3.6,8.4-3.6,16.8,0.2,25.1c5.9,12.9,20.7,24.4,38.8,30.1c24.1,7.6,69.6,17.2,103.6-3.4c32.4-19.6,47.7-21.7,47.9-21.7l2.3-0.3
			l-1.2-2c0,0-4.8-8.1-6.1-10.3c2.4-1.1,14.4-6.8,14.4-6.8s-6.9-6.2-9.3-8.3c3.1-1.3,14.2-5.8,14.2-5.8l-2.4-1.6
			c-0.1,0-6.1-4.2-10.8-17.9c-1-3-1.8-8.3-2.6-14.5c-3.1-22.7-8.2-60.7-40.2-76C137.1,26.6,120.3,26.8,87.4,37.7z"/>
		<path fill="#FFFFCC" d="M68.1,214.7c24.1,7.6,69.6,17.2,103.6-3.4c19.6-11.9,33-17.3,40.5-19.8c-4.6-1.5-9.8-3.3-15.8-5.6
			c-41-16-90.7-11.6-110.6-4.8c-20,6.8-40.5,2.9-55.8-2.9c0,0-1,0.6-2.4,1.9c0.4,1.5,1,3,1.7,4.5C35.2,197.4,50.1,209,68.1,214.7z"
			/>
		<path fill="none" stroke="#000000" stroke-width="4" stroke-linecap="round" stroke-linejoin="round" d="M87.4,37.7L87.4,37.7
			C49.8,50,39.1,76.9,34,99c-2.4,10.4-1.7,18.9-1,27.1c0.9,10.4,1.8,20.3-3.9,33.3c-3.6,8.4-3.6,16.8,0.2,25.1
			c5.9,12.9,20.7,24.4,38.8,30.1c24.1,7.6,69.6,17.2,103.6-3.4c32.4-19.6,47.7-21.7,47.9-21.7l2.3-0.3l-1.2-2c0,0-4.8-8.1-6.1-10.3
			c2.4-1.1,14.4-6.8,14.4-6.8s-6.9-6.2-9.3-8.3c3.1-1.3,14.2-5.8,14.2-5.8l-2.4-1.6c-0.1,0-6.1-4.2-10.8-17.9c-1-3-1.8-8.3-2.6-14.5
			c-3.1-22.7-8.2-60.7-40.2-76C137.1,26.6,120.3,26.8,87.4,37.7z"/>
	</g>
	<g>
		<path fill="#DF731B" stroke="#000000" stroke-width="4" stroke-linecap="round" stroke-linejoin="round" d="M204.5,108
			c-3.9-39.2-14-58.5-19.8-73c-5.8-14.5-10.2-19.3-13.5-22.2c-3.4-2.9-20.8,14.5-30.9,31.4c-10.2,16.9-15,24.7-16,28"/>
		<path fill="#FFFFCC" d="M134.4,78.7c1.9-10.4,6.9-19.2,13.8-28.9c2.9-4,11.2-15.3,13.8-13.9c3.4,1.9,10.3,16.6,14.9,36.2
			c4.6,19.6,4.2,25.8,1.9,27.7c-2.3,1.9-14.2-9.2-23.4-14.6C146.3,79.8,133.9,81.3,134.4,78.7z"/>
	</g>
	<g>
		<path fill="#FFFFCC" stroke="#000000" stroke-width="4" stroke-linecap="round" stroke-linejoin="round" d="M83.2,201.3
			c-3.4,7.3-22.7,10.6-30.5,7.7c-7.7-2.9-16.9-5.8-19.8-14.5c-2.9-8.7-2.9-15-2.9-15"/>
		<path fill="#332F20" stroke="#000000" stroke-width="4" stroke-linecap="round" stroke-linejoin="round" d="M22.8,171.2
			c1.8-5.9,14.7,0.6,15.9,6.2c1.1,5.7-2.8,18.2-6.8,15.9C27.9,191.1,21.1,176.9,22.8,171.2z"/>
		<g>
			<path d="M94.8,155.2c0,6-4.9,10.1-10.9,9c-6-1.1-10.8-6.8-10.8-12.9c0-6,4.9-10.1,10.8-9C90,143.4,94.8,149.2,94.8,155.2z"/>
			<path fill="#FFFFFF" d="M82.8,157c0,2.3-1.8,3.9-3.9,3.5c-2.2-0.4-3.9-2.6-3.9-4.9c0-2.3,1.8-3.9,3.9-3.5
				C81.1,152.5,82.8,154.7,82.8,157z"/>
		</g>
		<g>
			<path d="M45.1,142.4c0,6-2.5,9.2-5.5,7.1c-3.1-2.1-5.5-8.7-5.5-14.8c0-6,2.5-9.2,5.5-7.1C42.6,129.8,45.1,136.4,45.1,142.4z"/>
			<path fill="#FFFFFF" d="M39,142.1c0,2.3-0.9,3.6-2,2.8c-1.1-0.8-2-3.3-2-5.6s0.9-3.6,2-2.8C38.1,137.3,39,139.8,39,142.1z"/>
		</g>
	</g>
	<g>
		<path fill="none" stroke="#000000" stroke-width="3" stroke-linecap="round" stroke-linejoin="round" d="M109.8,178.6
			c49.3,3.4,69.6,21.8,69.6,21.8"/>
		<path fill="none" stroke="#000000" stroke-width="3" stroke-linecap="round" stroke-linejoin="round" d="M106.4,188.7
			c39.2,11.1,48.3,28.5,48.3,28.5"/>
		<path fill="none" stroke="#000000" stroke-width="3" stroke-linecap="round" stroke-linejoin="round" d="M102.5,198.4
			c23.7,16.4,27.6,28.5,27.6,28.5"/>
	</g>
</g>
</svg>
